<?xml version="1.0" encoding="utf-8"?>
<!-- Generator: Adobe Illustrator 23.0.4, SVG Export Plug-In . SVG Version: 6.00 Build 0)  -->
<svg version="1.1" id="Capa_1" xmlns="http://www.w3.org/2000/svg" xmlns:xlink="http://www.w3.org/1999/xlink" x="0px" y="0px"
	 viewBox="0 0 34 30" style="enable-background:new 0 0 34 30;" xml:space="preserve">
<style type="text/css">
	.st0{fill:#C4C4C4;}
</style>
<path class="st0" d="M0,17.2C0,7.7,7.6,0,17,0s17,7.7,17,17.2c0,5.1-2.2,9.7-5.7,12.8c-0.2-0.1-0.4-0.3-0.6-0.3L22,26.8
	c-0.5-0.3-0.8-0.7-0.8-1.3v-2c0.1-0.1,0.3-0.3,0.4-0.5c0.7-1,1.3-2.2,1.7-3.4c0.9-0.4,1.4-1.3,1.4-2.2v-2.4c0-0.6-0.2-1.1-0.6-1.6
	v-3.2c0.1-0.3,0.1-2.3-1.3-4C21.7,4.8,19.7,4,17,4s-4.7,0.7-5.9,2.2c-1.4,1.6-1.3,3.6-1.3,4v3.2c-0.4,0.5-0.6,1-0.6,1.6v2.4
	c0,0.7,0.3,1.4,0.9,1.9c0.5,2.2,1.7,3.8,2.1,4.3v2c0,0.5-0.3,1.1-0.8,1.3l-5.2,2.8c-0.2,0.1-0.3,0.2-0.5,0.3C2.2,26.8,0,22.2,0,17.2
	z"/>
</svg>
