<svg width="130" height="52" viewBox="0 0 130 52" fill="none" xmlns="http://www.w3.org/2000/svg">
<path d="M6.49377 0.932271L6.79803 3.21116L5.17527 5.28287L3.75536 6.00797L2.84256 7.251L0.307007 14.8127L0.509864 22.5817L4.3639 24.5498L4.66815 25.2749L4.46533 25.8964L4.97244 26.8287H7.10231L7.60943 29.4183L6.39235 34.2869L5.78381 35.2191L6.18949 52L19.273 51.8964L19.3744 45.992L23.2285 45.7849L30.7337 34.1833L31.2408 33.9761L31.7479 33.251L31.4437 32.5259V31.1793L30.9366 29.9363L31.038 29.004L30.7337 28.0717L30.1252 26.8287L28.6038 25.2749L28.2996 24.0319L28.7053 23.4104L28.1981 21.9602L28.401 21.3386L28.2996 20.8207L29.1109 20.3028L31.2408 12.1195L28.9081 9.01195L28.7053 8.28685L25.8654 8.18327L25.3583 6.94024L25.5612 5.49004L24.1413 3.52191L24.0398 3.00398L18.6645 1.96813L18.563 1.34661L16.3317 1.4502L16.0275 0.932271L15.0132 1.13944L14.3033 0.621514L11.8691 0L6.49377 0.932271Z" fill="white"/>
<path d="M48.7868 41.4343V41.9522C48.7868 42.0558 48.7868 42.0558 48.8882 42.1594C48.9897 42.263 48.9896 42.263 49.091 42.263H52.3366C52.438 42.263 52.438 42.263 52.5394 42.3666C52.5394 42.4702 52.5394 42.4702 52.5394 42.5737V44.2311C52.5394 44.3347 52.5394 44.3347 52.438 44.4383C52.3366 44.5419 52.3366 44.5419 52.2352 44.5419H48.9896C48.8882 44.5419 48.8882 44.5419 48.7868 44.6455C48.6853 44.749 48.6854 44.749 48.6854 44.8526V45.267C48.6854 45.3706 48.6853 45.3706 48.7868 45.4741C48.8882 45.5777 48.8882 45.5777 48.9896 45.5777H52.6408C52.7422 45.5777 52.7423 45.5777 52.8437 45.6813C52.9451 45.7849 52.9451 45.7849 52.9451 45.8885V47.5459C52.9451 47.6494 52.9451 47.6494 52.8437 47.753C52.7423 47.8566 52.7422 47.8566 52.6408 47.8566H46.6569C46.5555 47.8566 46.5555 47.8566 46.4541 47.753C46.3526 47.6494 46.3527 47.6494 46.3527 47.5459V39.259C46.3527 39.1554 46.3526 39.1554 46.4541 39.0518C46.5555 38.9482 46.5555 38.9482 46.6569 38.9482H52.6408C52.7422 38.9482 52.7423 38.9482 52.8437 39.0518C52.9451 39.1554 52.9451 39.1554 52.9451 39.259V40.9164C52.9451 41.02 52.9451 41.02 52.8437 41.1235C52.7423 41.2271 52.7422 41.2271 52.6408 41.2271H48.9896C48.8882 41.2271 48.8882 41.2271 48.7868 41.3307C48.7868 41.3307 48.7868 41.4343 48.7868 41.4343Z" fill="white"/>
<path d="M61.8703 39.2588V47.5457C61.8703 47.6493 61.8703 47.6493 61.7689 47.7529C61.6675 47.8565 61.6675 47.8565 61.5661 47.8565H59.8419C59.7405 47.8565 59.639 47.8565 59.639 47.7529C59.5376 47.7529 59.4362 47.6493 59.4362 47.5457L56.3935 43.0915C56.3935 42.9879 56.2921 42.9879 56.2921 42.9879C56.1907 42.9879 56.1906 43.0915 56.1906 43.0915V47.4421C56.1906 47.5457 56.1906 47.5457 56.0892 47.6493C55.9878 47.7529 55.9878 47.7529 55.8864 47.7529H54.1622C54.0607 47.7529 54.0608 47.7529 53.9594 47.6493C53.8579 47.5457 53.8579 47.5457 53.8579 47.4421V39.1552C53.8579 39.0517 53.8579 39.0517 53.9594 38.9481C54.0608 38.8445 54.0607 38.8445 54.1622 38.8445H55.8864C55.9878 38.8445 56.0892 38.8445 56.0892 38.9481C56.1906 38.9481 56.2921 39.0517 56.2921 39.1552L59.3348 43.6094C59.3348 43.713 59.4362 43.713 59.4362 43.713C59.4362 43.713 59.5376 43.713 59.5376 43.6094V39.2588C59.5376 39.1552 59.5376 39.1552 59.639 39.0517C59.7404 38.9481 59.7405 38.9481 59.8419 38.9481H61.5661C61.6675 38.9481 61.6675 38.9481 61.7689 39.0517C61.7689 39.1552 61.8703 39.1552 61.8703 39.2588Z" fill="white"/>
<path d="M69.0714 41.227H67.4487C67.3473 41.227 67.3472 41.227 67.2458 41.3306C67.1444 41.4341 67.1444 41.4341 67.1444 41.5377V47.5457C67.1444 47.6493 67.1444 47.6493 67.043 47.7529C66.9415 47.8565 66.9415 47.8565 66.8401 47.8565H65.116C65.0146 47.8565 65.0146 47.8565 64.9131 47.7529C64.8117 47.6493 64.8117 47.6493 64.8117 47.5457V41.4341C64.8117 41.3306 64.8117 41.3306 64.7103 41.227C64.7103 41.1234 64.6089 41.1234 64.5074 41.1234H62.7833C62.6818 41.1234 62.6819 41.1234 62.5805 41.0198C62.479 40.9162 62.479 40.9162 62.479 40.8126V39.1552C62.479 39.0517 62.479 39.0517 62.5805 38.9481C62.6819 38.8445 62.6818 38.8445 62.7833 38.8445H69.0714C69.1728 38.8445 69.2742 38.8445 69.2742 38.9481C69.3757 39.0517 69.3756 39.0517 69.3756 39.1552V40.8126C69.3756 40.9162 69.3757 40.9162 69.2742 41.0198C69.2742 41.1234 69.1728 41.227 69.0714 41.227Z" fill="white"/>
<path d="M72.2156 47.8566H70.4914C70.39 47.8566 70.39 47.8566 70.2885 47.753C70.1871 47.6494 70.1871 47.6494 70.1871 47.5459V39.259C70.1871 39.1554 70.1871 39.1554 70.2885 39.0518C70.39 38.9482 70.39 38.9482 70.4914 38.9482H74.1426C74.6497 38.9482 75.0554 39.0518 75.3597 39.1554C75.7654 39.3626 76.0696 39.5698 76.3739 39.7769C76.6782 40.0877 76.881 40.3984 76.9824 40.8128C77.1853 41.2271 77.1853 41.6415 77.1853 42.0558C77.1853 42.263 77.1853 42.5737 77.0839 42.7809C76.9825 42.9881 76.9825 43.2988 76.7796 43.506C76.6782 43.7132 76.5768 43.9204 76.3739 44.1275C76.2725 44.3347 76.0696 44.4383 75.8668 44.5419C75.7654 44.5419 75.7654 44.6455 75.7654 44.749C75.7654 44.8526 75.7654 44.8526 75.7654 44.9562C76.0697 45.3706 76.3739 45.7849 76.6782 46.1992C76.9824 46.6136 77.2867 47.0279 77.591 47.3387C77.591 47.4423 77.6924 47.4423 77.591 47.5459C77.591 47.6494 77.4896 47.6494 77.3881 47.6494H75.1568C75.0554 47.6494 74.954 47.6494 74.8526 47.5459C74.7511 47.5459 74.6497 47.4423 74.6497 47.3387C74.4469 47.0279 74.1426 46.6136 73.9397 46.3028C73.7369 45.9921 73.4327 45.5777 73.2298 45.267C73.2298 45.1634 73.1284 45.1634 73.027 45.0598C72.9255 45.0598 72.8241 44.9562 72.8241 44.9562V44.9562C72.7227 44.9562 72.7227 44.9562 72.6213 45.0598C72.5198 45.1634 72.5199 45.1634 72.5199 45.267V47.2351C72.5199 47.3387 72.5198 47.3387 72.4184 47.4423C72.4184 47.753 72.317 47.8566 72.2156 47.8566ZM72.8241 43.0917H74.0412C74.1426 43.0917 74.244 43.0917 74.3455 42.9881C74.4469 42.9881 74.5483 42.8845 74.6497 42.7809C74.7511 42.6773 74.8526 42.5737 74.8526 42.4702C74.954 42.3666 74.954 42.263 74.954 42.0558C74.954 41.9522 74.954 41.8486 74.954 41.7451C74.954 41.6415 74.8526 41.5379 74.8526 41.4343C74.7511 41.3307 74.6497 41.2271 74.5483 41.2271C74.4469 41.1235 74.3454 41.1235 74.1426 41.1235H72.8241C72.7227 41.1235 72.7227 41.1235 72.6213 41.2271C72.5198 41.3307 72.5199 41.3307 72.5199 41.4343V42.6773C72.5199 42.7809 72.5198 42.7809 72.6213 42.8845C72.7227 42.9881 72.7227 43.0917 72.8241 43.0917Z" fill="white"/>
<path d="M80.8364 41.4343V41.9522C80.8364 42.0558 80.8364 42.0558 80.9378 42.1594C81.0392 42.263 81.0392 42.263 81.1407 42.263H84.3862C84.4876 42.263 84.4875 42.263 84.5889 42.3666C84.6904 42.4702 84.6904 42.4702 84.6904 42.5737V44.2311C84.6904 44.3347 84.6904 44.3347 84.5889 44.4383C84.4875 44.5419 84.4876 44.5419 84.3862 44.5419H81.1407C81.0392 44.5419 81.0392 44.5419 80.9378 44.6455C80.8364 44.749 80.8364 44.749 80.8364 44.8526V45.267C80.8364 45.3706 80.8364 45.3706 80.9378 45.4741C81.0392 45.5777 81.0392 45.5777 81.1407 45.5777H84.7918C84.8932 45.5777 84.8932 45.5777 84.9947 45.6813C85.0961 45.7849 85.0961 45.7849 85.0961 45.8885V47.5459C85.0961 47.6494 85.0961 47.6494 84.9947 47.753C84.8932 47.8566 84.8932 47.8566 84.7918 47.8566H78.808C78.7066 47.8566 78.7065 47.8566 78.6051 47.753C78.5037 47.6494 78.5037 47.6494 78.5037 47.5459V39.259C78.5037 39.1554 78.5037 39.1554 78.6051 39.0518C78.7065 38.9482 78.7066 38.9482 78.808 38.9482H84.7918C84.8932 38.9482 84.8932 38.9482 84.9947 39.0518C85.0961 39.1554 85.0961 39.1554 85.0961 39.259V40.9164C85.0961 41.02 85.0961 41.02 84.9947 41.1235C84.8932 41.2271 84.8932 41.2271 84.7918 41.2271H81.1407C81.0392 41.2271 81.0392 41.2271 80.9378 41.3307C80.8364 41.3307 80.8364 41.4343 80.8364 41.4343Z" fill="white"/>
<path d="M95.2385 41.227H93.6157C93.5143 41.227 93.5143 41.227 93.4129 41.3306C93.3115 41.4341 93.3115 41.4341 93.3115 41.5377V47.5457C93.3115 47.6493 93.3114 47.6493 93.21 47.7529C93.21 47.8565 93.1086 47.8565 93.0072 47.8565H91.283C91.1816 47.8565 91.1816 47.8565 91.0802 47.7529C90.9787 47.6493 90.9788 47.6493 90.9788 47.5457V41.4341C90.9788 41.3306 90.9787 41.3306 90.8773 41.227C90.8773 41.1234 90.7759 41.1234 90.6745 41.1234H88.9503C88.8489 41.1234 88.8489 41.1234 88.7475 41.0198C88.646 40.9162 88.646 40.9162 88.646 40.8126V39.1552C88.646 39.0517 88.646 39.0517 88.7475 38.9481C88.8489 38.8445 88.8489 38.8445 88.9503 38.8445H95.1371C95.2385 38.8445 95.3399 38.8445 95.3399 38.9481C95.3399 39.0517 95.4413 39.0517 95.4413 39.1552V40.8126C95.4413 40.9162 95.4414 40.9162 95.3399 41.0198C95.3399 41.1234 95.2385 41.227 95.2385 41.227Z" fill="white"/>
<path d="M95.2383 43.4024C95.2383 42.7809 95.3398 42.1594 95.5426 41.6415C95.7454 41.1235 96.0497 40.6056 96.4554 40.1913C96.8611 39.7769 97.3682 39.4662 97.8753 39.259C98.3824 39.0518 98.991 38.9482 99.5995 38.9482C100.208 38.9482 100.817 39.0518 101.324 39.259C101.831 39.4662 102.338 39.7769 102.744 40.1913C103.149 40.6056 103.454 41.1235 103.656 41.6415C103.859 42.1594 103.961 42.7809 103.961 43.4024C103.961 44.0239 103.859 44.6455 103.656 45.1634C103.454 45.6813 103.149 46.1992 102.744 46.6136C102.338 47.0279 101.831 47.3387 101.324 47.5459C100.817 47.753 100.208 47.8566 99.5995 47.8566C98.991 47.8566 98.3824 47.753 97.8753 47.5459C97.3682 47.3387 96.8611 47.0279 96.4554 46.6136C96.0497 46.1992 95.7454 45.6813 95.5426 45.1634C95.3398 44.6455 95.2383 44.0239 95.2383 43.4024ZM97.571 43.4024C97.571 43.7132 97.6724 44.0239 97.7738 44.2311C97.8753 44.5419 98.0781 44.749 98.1796 44.9562C98.3824 45.1634 98.5853 45.3706 98.8895 45.4741C99.1938 45.5777 99.3966 45.6813 99.7009 45.6813C100.005 45.6813 100.309 45.5777 100.512 45.4741C100.817 45.3706 101.019 45.1634 101.222 44.9562C101.425 44.749 101.526 44.5419 101.729 44.2311C101.831 43.9204 101.932 43.7132 101.932 43.4024C101.932 43.0917 101.831 42.7809 101.729 42.5737C101.628 42.263 101.425 42.0558 101.222 41.8486C101.019 41.6415 100.817 41.4343 100.512 41.3307C100.208 41.2271 100.005 41.1235 99.7009 41.1235C99.3966 41.1235 99.0924 41.2271 98.8895 41.3307C98.5853 41.4343 98.3824 41.6415 98.1796 41.8486C97.9767 42.0558 97.8753 42.263 97.7738 42.5737C97.571 42.7809 97.571 43.0917 97.571 43.4024Z" fill="white"/>
<path d="M104.569 47.5458V39.3625C104.569 39.2589 104.569 39.2589 104.671 39.1553C104.772 39.0518 104.772 39.0518 104.874 39.0518H108.119C109.336 39.0518 110.35 39.4661 111.162 40.1912C111.567 40.6055 111.872 41.0199 112.176 41.6414C112.379 42.1593 112.48 42.7808 112.48 43.5059C112.48 44.231 112.379 44.8526 112.176 45.3705C111.973 45.8884 111.669 46.4063 111.162 46.8207C110.756 47.1314 110.35 47.4422 109.843 47.6494C109.336 47.8565 108.728 47.9601 108.119 47.9601H104.874C104.772 47.9601 104.772 47.9601 104.671 47.8565C104.569 47.6494 104.569 47.5458 104.569 47.5458ZM107.206 45.5777H108.119C108.322 45.5777 108.525 45.5777 108.829 45.4741C109.032 45.3705 109.235 45.2669 109.438 45.1633C109.64 44.9561 109.742 44.749 109.945 44.5418C110.046 44.231 110.148 43.9203 110.148 43.4024C110.148 42.988 110.046 42.5737 109.945 42.2629C109.843 41.9522 109.64 41.745 109.438 41.6414C109.235 41.4342 109.032 41.3306 108.829 41.3306C108.626 41.2271 108.322 41.2271 108.119 41.2271H107.206C107.105 41.2271 107.105 41.2271 107.003 41.3306C106.902 41.4342 106.902 41.4342 106.902 41.5378V45.2669C106.902 45.3705 106.902 45.3705 107.003 45.4741C107.003 45.5777 107.105 45.5777 107.206 45.5777Z" fill="white"/>
<path d="M112.683 43.4024C112.683 42.7809 112.785 42.1594 112.987 41.6415C113.19 41.1235 113.494 40.6056 113.9 40.1913C114.306 39.7769 114.813 39.4662 115.32 39.259C115.827 39.0518 116.436 38.9482 117.044 38.9482C117.653 38.9482 118.261 39.0518 118.768 39.259C119.276 39.4662 119.783 39.7769 120.188 40.1913C120.594 40.6056 120.898 41.1235 121.101 41.6415C121.304 42.1594 121.405 42.7809 121.405 43.4024C121.405 44.0239 121.304 44.6455 121.101 45.1634C120.898 45.6813 120.594 46.1992 120.188 46.6136C119.783 47.0279 119.276 47.3387 118.768 47.5459C118.261 47.753 117.653 47.8566 117.044 47.8566C116.436 47.8566 115.827 47.753 115.32 47.5459C114.813 47.3387 114.306 47.0279 113.9 46.6136C113.494 46.1992 113.19 45.6813 112.987 45.1634C112.886 44.6455 112.683 44.0239 112.683 43.4024ZM115.016 43.4024C115.016 43.7132 115.117 44.0239 115.219 44.2311C115.32 44.5419 115.523 44.749 115.624 44.9562C115.827 45.1634 116.03 45.3706 116.334 45.4741C116.639 45.5777 116.841 45.6813 117.146 45.6813C117.45 45.6813 117.754 45.5777 117.957 45.4741C118.261 45.3706 118.464 45.1634 118.667 44.9562C118.87 44.749 118.971 44.5419 119.174 44.2311C119.276 43.9204 119.377 43.7132 119.377 43.4024C119.377 43.0917 119.276 42.7809 119.174 42.5737C119.073 42.263 118.87 42.0558 118.667 41.8486C118.464 41.6415 118.261 41.4343 117.957 41.3307C117.653 41.2271 117.45 41.1235 117.146 41.1235C116.841 41.1235 116.537 41.2271 116.334 41.3307C116.03 41.4343 115.827 41.6415 115.624 41.8486C115.422 42.0558 115.32 42.263 115.219 42.5737C115.117 42.7809 115.016 43.0917 115.016 43.4024Z" fill="white"/>
<path d="M123.13 44.7489C123.535 45.0597 123.941 45.2669 124.347 45.3704C124.752 45.5776 125.158 45.5776 125.564 45.5776C125.868 45.5776 126.172 45.5776 126.375 45.474C126.578 45.3704 126.679 45.2669 126.679 45.0597C126.679 44.9561 126.679 44.8525 126.578 44.8525C126.477 44.7489 126.375 44.7489 126.274 44.7489C126.172 44.7489 125.97 44.6453 125.868 44.6453C125.665 44.6453 125.564 44.5418 125.361 44.5418C125.158 44.5418 124.955 44.4382 124.752 44.4382C124.55 44.4382 124.245 44.3346 124.042 44.231C123.84 44.1274 123.535 44.0238 123.333 43.9203C123.13 43.8167 122.927 43.6095 122.724 43.4023C122.521 43.1952 122.42 42.988 122.318 42.6772C122.217 42.3665 122.115 42.0557 122.115 41.745C122.115 41.227 122.217 40.7091 122.42 40.3984C122.623 40.0876 122.927 39.7769 123.231 39.5697C123.535 39.3625 123.941 39.2589 124.347 39.1553C124.752 39.0518 125.158 39.0518 125.462 39.0518C126.172 39.0518 126.679 39.1553 127.187 39.3625C127.694 39.5697 128.201 39.8804 128.708 40.1912C128.809 40.2948 128.809 40.2948 128.809 40.3984C128.809 40.5019 128.809 40.5019 128.708 40.6055L127.795 41.9521C127.795 42.0557 127.694 42.0557 127.592 42.0557C127.491 42.0557 127.491 42.0557 127.389 42.0557C126.984 41.8485 126.578 41.6414 126.274 41.5378C125.97 41.4342 125.564 41.3306 125.361 41.3306C125.26 41.3306 125.158 41.3306 125.057 41.3306C124.955 41.3306 124.854 41.3306 124.752 41.3306C124.651 41.3306 124.55 41.4342 124.55 41.4342C124.448 41.5378 124.448 41.5378 124.448 41.745C124.448 41.8486 124.55 41.9521 124.651 42.0557C124.854 42.1593 124.955 42.2629 125.26 42.2629C125.462 42.3665 125.665 42.3665 125.868 42.3665C126.071 42.3665 126.172 42.4701 126.274 42.4701C126.578 42.5736 126.882 42.5736 127.187 42.6772C127.491 42.7808 127.795 42.988 128.099 43.1952C128.404 43.4023 128.607 43.7131 128.809 44.0238C129.012 44.3346 129.114 44.7489 129.114 45.2669C129.114 45.7848 129.012 46.1991 128.911 46.5099C128.708 46.8206 128.505 47.1314 128.201 47.3386C127.897 47.5457 127.592 47.7529 127.187 47.8565C126.781 47.9601 126.274 48.0636 125.767 48.0636C125.361 48.0636 124.955 48.0636 124.651 47.9601C124.347 47.8565 123.941 47.7529 123.637 47.6493C123.333 47.5457 123.028 47.3386 122.825 47.235C122.521 47.0278 122.318 46.9242 122.115 46.717C122.014 46.717 122.014 46.6135 122.014 46.5099C122.014 46.4063 122.014 46.3027 122.115 46.3027L123.028 44.9561C123.028 44.8525 123.13 44.8525 123.231 44.8525C123.028 44.7489 123.028 44.7489 123.13 44.7489Z" fill="white"/>
<path d="M50.3083 7.97611C51.3226 7.97611 52.0326 8.59762 52.2354 9.63348L52.3368 9.94423H54.2639L54.1625 9.42631C53.8582 7.3546 52.3368 6.11157 50.3083 6.11157C49.1927 6.11157 48.2799 6.52591 47.4685 7.25101C46.4542 8.28687 46.4542 9.4263 46.4542 11.6016C46.4542 13.7769 46.4542 14.9163 47.4685 15.9522C48.1784 16.6773 49.1927 17.0916 50.3083 17.0916C51.424 17.0916 52.4383 16.6773 53.2497 15.8486C53.9597 15.1235 54.1625 14.2948 54.1625 12.9482V10.8765H49.8012V12.741H52.2354V13.0518C52.2354 13.7769 52.134 14.1912 51.8297 14.6056C51.424 15.0199 50.9169 15.3307 50.3083 15.3307C49.8012 15.3307 49.2941 15.1235 48.8884 14.8127C48.3813 14.2948 48.2799 13.7769 48.2799 11.7052C48.2799 9.63348 48.3813 9.11555 48.8884 8.59762C49.2941 8.18328 49.6998 7.97611 50.3083 7.97611Z" fill="white"/>
<path d="M58.8277 6.11157C57.7121 6.11157 56.7993 6.52591 55.9879 7.25101C54.9736 8.28687 54.9736 9.4263 54.9736 11.6016C54.9736 13.7769 54.9736 14.9163 55.9879 15.9522C56.6978 16.6773 57.7121 17.0916 58.8277 17.0916C59.9434 17.0916 60.8562 16.6773 61.6676 15.9522C62.6818 14.9163 62.6818 13.7769 62.6818 11.6016C62.6818 9.4263 62.6818 8.28687 61.6676 7.25101C60.8562 6.52591 59.9434 6.11157 58.8277 6.11157ZM60.7548 11.7052C60.7548 13.7769 60.6534 14.2948 60.1462 14.8127C59.4363 15.5378 58.1177 15.5378 57.4078 14.8127C56.9007 14.2948 56.7993 13.7769 56.7993 11.7052C56.7993 9.63348 56.9007 9.11555 57.4078 8.59762C57.712 8.18328 58.2192 7.97611 58.8277 7.97611C59.3349 7.97611 59.8419 8.18328 60.2476 8.59762C60.6533 9.11555 60.7548 9.52989 60.7548 11.7052Z" fill="white"/>
<path d="M70.0856 11.4984C70.6941 10.9805 71.0998 10.1518 71.0998 9.32313C71.0998 7.4586 69.7813 6.21558 67.7528 6.21558H63.5945V17.092H67.8542C69.8827 17.092 71.2013 15.849 71.2013 13.8809C71.2013 12.9486 70.7955 12.0163 70.0856 11.4984ZM67.6514 10.6697H65.5215V8.08011H67.6514C68.3614 8.08011 69.1728 8.28728 69.1728 9.32313C69.1728 10.4626 68.1585 10.6697 67.6514 10.6697ZM67.7528 12.5343C68.7671 12.5343 69.2742 13.0522 69.2742 13.8809C69.2742 14.7095 68.6656 15.2275 67.7528 15.2275H65.5215V12.4307H67.7528V12.5343Z" fill="white"/>
<path d="M74.1425 6.21558H72.2156V17.092H74.1425V6.21558Z" fill="white"/>
<path d="M75.3597 17.092H82.3579V15.2275H77.2868V12.5343H81.5465V10.6697H77.2868V8.08011H82.3579V6.21558H75.3597V17.092Z" fill="white"/>
<path d="M90.6744 9.42671C90.6744 7.4586 89.3559 6.21558 87.3275 6.21558H83.1692V17.092H85.0962V12.6378H86.719L88.9503 17.092H91.1815L88.7474 12.4307C89.9645 11.9128 90.6744 10.8769 90.6744 9.42671ZM88.7474 9.42671C88.7474 10.5661 87.936 10.7733 87.2261 10.7733H85.0962V8.08011H87.2261C87.8346 8.08011 88.7474 8.28728 88.7474 9.42671Z" fill="white"/>
<path d="M97.9768 13.1558L93.4128 6.21558H91.79V17.092H93.717V10.1518L98.1797 17.092H99.9039V6.21558H97.9768V13.1558Z" fill="white"/>
<path d="M104.975 6.11157C103.859 6.11157 102.947 6.52591 102.135 7.25101C101.121 8.28687 101.121 9.4263 101.121 11.6016C101.121 13.7769 101.121 14.9163 102.135 15.9522C102.845 16.6773 103.859 17.0916 104.975 17.0916C106.091 17.0916 107.003 16.6773 107.815 15.9522C108.829 14.9163 108.829 13.7769 108.829 11.6016C108.829 9.4263 108.829 8.28687 107.815 7.25101C107.003 6.52591 105.989 6.11157 104.975 6.11157ZM106.902 11.7052C106.902 13.7769 106.801 14.2948 106.294 14.8127C105.584 15.5378 104.265 15.5378 103.555 14.8127C103.048 14.2948 102.947 13.8805 102.947 11.7052C102.947 9.63348 103.048 9.11555 103.555 8.59762C103.859 8.18328 104.366 7.97611 104.975 7.97611C105.584 7.97611 105.989 8.18328 106.395 8.59762C106.801 9.11555 106.902 9.52989 106.902 11.7052Z" fill="white"/>
<path d="M119.681 7.25143C118.971 6.52633 118.058 6.21558 116.943 6.21558H113.19V17.092H116.943C118.058 17.092 119.073 16.6777 119.681 16.0562C120.797 14.9167 120.797 13.1558 120.797 11.8092V11.602V11.3948C120.695 9.94464 120.797 8.39086 119.681 7.25143ZM118.87 11.3948V11.7056C118.87 12.7414 118.87 14.088 118.363 14.7095C117.957 15.1239 117.45 15.3311 116.74 15.3311H115.016V8.08011H116.74C117.45 8.08011 117.957 8.28728 118.363 8.70162C118.87 9.21954 118.87 10.359 118.87 11.3948Z" fill="white"/>
<path d="M122.014 17.092H128.911V15.2275H123.941V12.5343H128.201V10.6697H123.941V8.08011H128.911V6.21558H122.014V17.092Z" fill="white"/>
<path d="M51.5254 34.3903C50.1055 34.3903 48.7869 33.8724 47.7727 32.8365C47.1642 32.215 46.7585 31.4899 46.6571 30.7648C46.4542 29.9361 46.4542 28.7967 46.4542 27.2429C46.4542 25.6891 46.5557 24.5496 46.6571 23.721C46.8599 22.8923 47.1642 22.2708 47.7727 21.6492C48.7869 20.6134 50.004 20.0955 51.5254 20.0955C54.1624 20.0955 56.0894 21.6492 56.5966 24.5496H53.8581C53.5538 23.3066 52.8439 22.5815 51.5254 22.5815C50.8154 22.5815 50.2069 22.7887 49.8012 23.3066C49.1926 23.9281 49.0912 24.5496 49.0912 27.2429C49.0912 29.9361 49.1926 30.5576 49.8012 31.1791C50.2069 31.6971 50.8154 31.9042 51.5254 31.9042C52.8439 31.9042 53.5538 31.0755 53.8581 29.9361H56.5966C56.0894 32.7329 54.061 34.3903 51.5254 34.3903Z" fill="white"/>
<path d="M66.1302 32.8365C65.116 33.8724 64.0003 34.3903 62.3775 34.3903C60.8562 34.3903 59.6391 33.8724 58.6249 32.8365C57.205 31.3863 57.3064 29.6253 57.3064 27.2429C57.3064 24.8604 57.3064 23.0994 58.6249 21.6492C59.6391 20.6134 60.7548 20.0955 62.3775 20.0955C63.8989 20.0955 65.116 20.6134 66.1302 21.6492C67.5501 23.0994 67.5501 24.8604 67.5501 27.2429C67.4487 29.6253 67.4487 31.3863 66.1302 32.8365ZM64.1017 23.3066C63.696 22.8923 63.0875 22.5815 62.3775 22.5815C61.6676 22.5815 61.059 22.8923 60.6533 23.3066C60.1462 23.9281 60.0448 24.5496 60.0448 27.2429C60.0448 29.9361 60.1462 30.5576 60.6533 31.1791C61.059 31.5935 61.6676 31.9042 62.3775 31.9042C63.0875 31.9042 63.696 31.5935 64.1017 31.1791C64.6089 30.5576 64.8116 29.9361 64.8116 27.2429C64.8116 24.5496 64.6089 23.8245 64.1017 23.3066Z" fill="white"/>
<path d="M76.9822 34.2868L74.3453 28.6932H72.4182V34.2868H69.7812V20.1992H75.1566C77.9965 20.1992 79.6193 22.1673 79.6193 24.5498C79.6193 26.5179 78.4022 27.7609 77.0837 28.2789L80.1264 34.2868H76.9822ZM74.9538 22.6853H72.4182V26.4143H74.9538C76.1708 26.4143 76.8808 25.6892 76.8808 24.5498C76.8808 23.4104 76.0694 22.6853 74.9538 22.6853Z" fill="white"/>
<path d="M90.4716 32.9402C89.5588 33.8724 88.2403 34.2868 86.8203 34.2868H81.8506V20.1992H86.8203C88.2403 20.1992 89.5588 20.6136 90.4716 21.5458C91.993 23.0996 91.8915 25.0677 91.8915 27.1394C91.8915 29.3147 91.993 31.2828 90.4716 32.9402ZM88.5446 23.5139C88.0374 22.8924 87.4289 22.6853 86.5161 22.6853H84.4876V31.8007H86.5161C87.4289 31.8007 88.0374 31.49 88.5446 30.9721C89.0517 30.3506 89.1531 29.3147 89.1531 27.243C89.1531 25.0677 89.0517 24.1355 88.5446 23.5139Z" fill="white"/>
<path d="M102.439 32.8365C101.425 33.8724 100.309 34.3903 98.6867 34.3903C97.1654 34.3903 95.9483 33.8724 94.9341 32.8365C93.5142 31.3863 93.6156 29.6253 93.6156 27.2429C93.6156 24.8604 93.6156 23.0994 94.9341 21.6492C95.9483 20.6134 97.0639 20.0955 98.6867 20.0955C100.208 20.0955 101.425 20.6134 102.439 21.6492C103.859 23.0994 103.859 24.8604 103.859 27.2429C103.859 29.6253 103.859 31.3863 102.439 32.8365ZM100.411 23.3066C100.005 22.8923 99.3966 22.5815 98.6867 22.5815C97.9767 22.5815 97.3682 22.8923 96.9625 23.3066C96.4554 23.9281 96.354 24.5496 96.354 27.2429C96.354 29.9361 96.4554 30.5576 96.9625 31.1791C97.3682 31.5935 97.9767 31.9042 98.6867 31.9042C99.3966 31.9042 100.005 31.5935 100.411 31.1791C100.918 30.5576 101.121 29.9361 101.121 27.2429C101.121 24.5496 101.019 23.8245 100.411 23.3066Z" fill="white"/>
<path d="M111.872 34.2868H106.091V20.1992H111.567C114.204 20.1992 115.827 21.753 115.827 24.1355C115.827 25.6892 114.813 26.7251 114.103 27.0358C114.914 27.4502 116.03 28.2789 116.03 30.1434C116.03 32.8366 114.306 34.2868 111.872 34.2868ZM111.364 22.6853H108.728V25.8964H111.364C112.48 25.8964 113.19 25.2749 113.19 24.239C113.19 23.3068 112.48 22.6853 111.364 22.6853ZM111.567 28.3824H108.728V31.8007H111.567C112.784 31.8007 113.393 30.9721 113.393 30.0398C113.393 29.1075 112.784 28.3824 111.567 28.3824Z" fill="white"/>
<path d="M126.071 34.2868L125.26 31.8007H120.391L119.58 34.2868H116.74L121.71 20.1992H123.84L128.911 34.2868H126.071ZM122.927 24.3426L121.203 29.4183H124.651L122.927 24.3426Z" fill="white"/>
<path d="M63.4932 19.3707H60.6533L61.2618 18.0242H64.1017L63.4932 19.3707Z" fill="white"/>
<path d="M39.6588 0H37.9346V17.2988H39.6588V0Z" fill="white"/>
<path d="M39.6588 17.2991H37.9346V34.5978H39.6588V17.2991Z" fill="white"/>
<path d="M39.6588 34.5979H37.9346V51.8967H39.6588V34.5979Z" fill="white"/>
</svg>
