<?xml version="1.0" encoding="utf-8"?>
<!-- Generator: Adobe Illustrator 19.0.0, SVG Export Plug-In . SVG Version: 6.00 Build 0)  -->
<svg version="1.1" id="Capa_1" xmlns="http://www.w3.org/2000/svg" xmlns:xlink="http://www.w3.org/1999/xlink" x="0px" y="0px"
	 viewBox="-234 395.9 126 50" style="enable-background:new -234 395.9 126 50;" xml:space="preserve">
<style type="text/css">
	.st0{fill:#FFFFFF;}
</style>
<g>
	<polygon class="st0" points="-207.9,417 -207.9,408.1 -211,414.6 -212.6,414.6 -215.7,408.1 -215.7,417 -217.8,417 -217.8,403.4 
		-215.7,403.4 -211.8,411.9 -207.9,403.4 -205.8,403.4 -205.8,417 	"/>
	<path class="st0" d="M-203.3,403.4h2.1v2.1h-2.1V403.4z M-203.3,417L-203.3,417v-9.7h1.9v9.7H-203.3z"/>
	<path class="st0" d="M-193.2,417v-5.8c0-1.5-0.8-2.1-1.9-2.1s-1.9,0.6-1.9,2.1v5.8h-1.9v-9.7h1.9v1c0.6-0.8,1.5-1.2,2.5-1.2
		s1.7,0.4,2.3,1c0.8,0.8,1,1.5,1,2.7v6.2H-193.2z"/>
	<path class="st0" d="M-189.2,403.4h2.1v2.1h-2.1V403.4z M-189.2,417L-189.2,417v-9.7h1.9v9.7H-189.2z"/>
	<path class="st0" d="M-181.8,417.2c-1.5,0-2.9-0.2-4.1-1.4l1.4-1.4c0.8,0.8,1.7,1,2.7,1c1.2,0,2.1-0.4,2.1-1.4
		c0-0.6-0.4-1.2-1.4-1.2l-1.5-0.2c-1.7-0.2-2.9-1-2.9-2.7c0-1.9,1.5-2.9,3.7-2.9c1.4,0,2.7,0.4,3.5,1.2l-1.2,1.2
		c-0.6-0.6-1.5-0.8-2.3-0.8c-1.2,0-1.7,0.6-1.7,1.2c0,0.6,0.4,1,1.4,1.2l1.5,0.2c1.7,0.2,2.9,1,2.9,2.7
		C-177.8,416.2-179.5,417.2-181.8,417.2"/>
	<path class="st0" d="M-173.5,417c-1.7,0-2.7-1.4-2.7-2.7V409h-1.2v-1.5h1.2v-2.9h1.9v2.9h1.9v1.5h-1.9v5.2c0,0.8,0.4,1.2,1.2,1.2
		h0.8v1.7h-1.2V417z"/>
	<path class="st0" d="M-169.5,412.7c0,1.7,1,2.7,2.5,2.7c1.2,0,1.7-0.4,2.3-1l1.2,1.2c-1,1-1.9,1.5-3.7,1.5c-2.3,0-4.3-1.4-4.3-5
		c0-3.1,1.5-4.8,4.1-4.8c2.5,0,4.1,1.9,4.1,4.6v0.8L-169.5,412.7L-169.5,412.7z M-165.4,410.2L-165.4,410.2c-0.4-0.8-1-1.2-1.9-1.2
		c-1,0-1.5,0.6-1.9,1.2c-0.2,0.4-0.2,0.8-0.2,1.4h4.3C-165.2,410.8-165.2,410.6-165.4,410.2"/>
	<path class="st0" d="M-156.1,409.6c-0.4-0.4-0.8-0.6-1.4-0.6c-1,0-1.9,0.8-1.9,2.1v5.8h-1.9v-9.7h1.9v1c0.6-0.8,1.5-1.2,2.5-1.2
		s1.5,0.2,2.3,1L-156.1,409.6z"/>
	<path class="st0" d="M-154,403.4h2.1v2.1h-2.1V403.4z M-154,417L-154,417v-9.7h1.9v9.7H-154z"/>
	<path class="st0" d="M-143.4,416c-0.6,0.6-1.5,1.2-2.9,1.2c-1.4,0-2.3-0.6-2.9-1.2c-1-1-1.2-2.1-1.2-3.9c0-1.5,0.2-2.9,1.2-3.9
		c0.6-0.6,1.5-1.2,2.9-1.2c1.4,0,2.3,0.6,2.9,1.2c1,1,1.2,2.1,1.2,3.9C-142.2,413.9-142.4,415-143.4,416 M-144.7,409.6L-144.7,409.6
		c-0.4-0.4-0.8-0.6-1.4-0.6c-0.6,0-1,0.2-1.4,0.6c-0.6,0.6-0.6,1.5-0.6,2.7c0,1,0,2.1,0.6,2.7c0.4,0.4,0.8,0.6,1.4,0.6
		c0.6,0,1.2-0.2,1.4-0.6c0.6-0.6,0.6-1.5,0.6-2.7S-144.2,410.2-144.7,409.6"/>
	<path class="st0" d="M-131,417v-1c-0.8,1-1.5,1.2-2.5,1.2s-1.7-0.4-2.3-0.8c-1-1-1.2-2.7-1.2-4.1c0-1.5,0.2-3.1,1.2-4.1
		c0.6-0.6,1.4-0.8,2.3-0.8s1.7,0.2,2.5,1.2v-4.8h1.9v13.5h-1.9V417z M-133.1,409L-133.1,409c-1.7,0-1.9,1.5-1.9,3.3
		c0,1.7,0.2,3.3,1.9,3.3s1.9-1.5,1.9-3.3C-131.2,410.6-131.4,409-133.1,409"/>
	<path class="st0" d="M-125.6,412.7c0,1.7,1,2.7,2.5,2.7c1.2,0,1.7-0.4,2.3-1l1.2,1.2c-1,1-1.9,1.5-3.7,1.5c-2.3,0-4.3-1.4-4.3-5
		c0-3.1,1.5-4.8,4.1-4.8c2.5,0,4.1,1.9,4.1,4.6v0.8L-125.6,412.7L-125.6,412.7z M-121.5,410.2L-121.5,410.2c-0.4-0.8-1-1.2-1.9-1.2
		c-1,0-1.5,0.6-1.9,1.2c-0.2,0.4-0.2,0.8-0.2,1.4h4.3C-121.2,410.8-121.4,410.6-121.5,410.2"/>
	<polygon class="st0" points="-213.9,424.1 -213.9,427 -207.7,427 -207.7,430.5 -213.9,430.5 -213.9,436.9 -217.8,436.9 
		-217.8,420.4 -206.8,420.4 -206.8,424.1 	"/>
	<rect x="-205.2" y="420.4" class="st0" width="4.1" height="16.2"/>
	<polygon class="st0" points="-189.6,436.9 -194.8,428.6 -194.8,436.9 -198.8,436.9 -198.8,420.4 -195.4,420.4 -190.2,428.8 
		-190.2,420.4 -186.1,420.4 -186.1,436.9 	"/>
	<path class="st0" d="M-174.7,436.9l-0.8-2.5h-5l-0.8,2.5h-4.3l6-16.2h3.1l6,16.2H-174.7z M-178,426.6L-178,426.6l-1.5,4.4h2.9
		L-178,426.6z"/>
	<polygon class="st0" points="-160.6,436.9 -165.8,428.6 -165.8,436.9 -169.9,436.9 -169.9,420.4 -166.4,420.4 -161.2,428.8 
		-161.2,420.4 -157.1,420.4 -157.1,436.9 	"/>
	<polygon class="st0" points="-155.8,436.9 -155.8,433.6 -149.6,424.1 -155.6,424.1 -155.6,420.4 -144.7,420.4 -144.7,423.5 
		-150.9,433.2 -145.1,433.2 -146.7,436.9 	"/>
	<path class="st0" d="M-134.3,436.9l-0.8-2.5h-5l-0.8,2.5h-4.3l6-16.2h3.1l6,16.2H-134.3z M-137.4,426.6L-137.4,426.6l-1.5,4.4h2.9
		L-137.4,426.6z"/>
	<path class="st0" d="M-128.5,432.4c0.8,0.6,2.7,1,3.7,1c1.5,0,2.3-0.6,2.3-1.5c0-0.4,0-0.8-0.4-1c-0.2-0.2-0.6-0.4-1.2-0.4
		l-1.9-0.2c-1.4-0.2-2.5-0.8-3.3-1.4c-0.8-0.8-1.2-1.9-1.2-3.3c0-2.9,2.3-5.2,6-5.2c1.5,0,3.3,0.4,4.4,1l-0.8,3.5
		c-1.2-1-2.9-1-3.7-1c-1.4,0-1.9,0.8-1.9,1.5c0,0.2,0,0.6,0.4,0.8c0.2,0.2,0.6,0.4,1.2,0.4l1.9,0.2c1.5,0.2,2.5,0.6,3.3,1.4
		c0.8,0.8,1.2,2.1,1.2,3.5c0,3.3-2.9,5.2-6.4,5.2c-1.9,0-3.7-0.4-5-1.2"/>
	<rect x="-227.3" y="403.6" class="st0" width="1.9" height="11"/>
	<rect x="-227.3" y="414.6" class="st0" width="1.9" height="11"/>
	<rect x="-227.3" y="425.7" class="st0" width="1.9" height="11"/>
</g>
</svg>
