<?xml version="1.0" encoding="utf-8"?>
<!-- Generator: Adobe Illustrator 19.0.0, SVG Export Plug-In . SVG Version: 6.00 Build 0)  -->
<svg version="1.1" id="Capa_1" xmlns="http://www.w3.org/2000/svg" xmlns:xlink="http://www.w3.org/1999/xlink" x="0px" y="0px"
	 viewBox="0 0 156 38" style="enable-background:new 0 0 156 38;" xml:space="preserve">
<style type="text/css">
	.st0{fill:#5C9CCB;}
	.st1{fill:#D6A251;}
	.st2{fill:#BF6347;}
</style>
<g id="XMLID_27_">
	<g id="XMLID_78_">
		<g id="XMLID_151_">
			<path id="XMLID_163_" class="st0" d="M56.5,6.1H64c3.9,0,6.1,2.2,6.1,5.4c0,2.1-1,4.2-3.2,5.1l3.9,6.7h-4.7l-3.4-6.1h-1.9v6.1
				h-4.3V6.1z M63.5,14.1c1.6,0,2.5-0.9,2.5-2.3c0-1.5-1-2.3-2.5-2.3h-2.6v4.6H63.5z"/>
			<path id="XMLID_161_" class="st0" d="M72.8,6.1h12.6v3.5h-8.3v3.3h7v3.5h-7v3.4h8.3v3.5H72.8V6.1z"/>
			<path id="XMLID_159_" class="st0" d="M87.9,6.1H92l6.5,9.7h0V6.1h3.9v17.2h-4l-6.7-10.1h0v10.1h-3.9V6.1z"/>
			<path id="XMLID_157_" class="st0" d="M109.4,9.6h-4.8V6.1h13.9v3.5h-4.8v13.8h-4.3V9.6z"/>
			<path id="XMLID_154_" class="st0" d="M123.5,6.1h4.6l6,17.2h-4.4l-1-3.2h-6.1l-1.1,3.2h-4L123.5,6.1z M127.6,16.7l-2-6.2h-0.1
				l-2,6.2H127.6z"/>
			<path id="XMLID_152_" class="st0" d="M145.7,10.6c-2.4-1.3-3.5-1.4-4.9-1.4c-1.2,0-2.3,0.4-2.3,1.6c0,1,1,1.4,2.2,1.7l2.7,0.7
				c2.4,0.6,3.8,2.6,3.8,4.7c0,4-2.9,5.6-6.4,5.6c-2.2,0-3.4-0.2-5.7-1.4v-3.8c1.4,0.8,3,1.8,5.5,1.8c1.3,0,2.7-0.4,2.7-1.6
				c0-1.1-0.9-1.4-1.9-1.7l-2.9-0.8c-2.3-0.6-4-2-4-4.8c0-3.2,2.7-5.5,6.5-5.5c1.7,0,3.1,0.4,4.9,1.1V10.6z"/>
		</g>
	</g>
	<g id="XMLID_75_">
		<path id="XMLID_17_" class="st1" d="M29.4,0.6C21.1,0.6,14,6.2,12,13.9h0H8.4l9,7.8c-0.3-1.1-0.4-1.8-0.4-3.1c0-1.7,0.3-3.3,1-4.8
			h0c1.9-4.5,6.3-7.6,11.4-7.6c4.7,0,8.8,2.6,10.9,6.4V4.2C37.2,1.9,33.5,0.6,29.4,0.6z"/>
		<path id="XMLID_16_" class="st2" d="M41.4,15.7c0.2,1,0.4,1.8,0.4,3c0,1.7-0.3,3.3-1,4.8h0c-1.9,4.4-6.3,7.6-11.4,7.6
			c-4.8,0-9-2.7-11-6.7V33c3,2.3,6.9,3.7,11,3.7c8.3,0,15.3-5.6,17.4-13.3h3.5L41.4,15.7z"/>
	</g>
	<g id="XMLID_28_">
		<g id="XMLID_223_">
			<path id="XMLID_244_" class="st0" d="M60.7,37.1c-0.5,0.2-1.2,0.4-2,0.4c-1.5,0-2.9-1-2.9-2.7v-3c0-1.9,1.4-2.9,2.9-2.9
				c0.9,0,1.7,0.3,1.9,0.4l-0.2,1c-0.2-0.1-0.9-0.3-1.7-0.3c-1,0-1.9,0.7-1.9,1.9v2.8c0,1.1,0.8,1.8,2,1.8c0.7,0,1.4-0.2,1.8-0.3
				L60.7,37.1z"/>
			<path id="XMLID_240_" class="st0" d="M61.5,31.7c0-1.9,1.4-2.8,3-2.8s3,0.9,3,2.8v3c0,1.9-1.4,2.8-3,2.8s-3-0.9-3-2.8V31.7z
				 M62.5,34.6c0,1.2,0.7,1.9,1.9,1.9c1.2,0,1.9-0.7,1.9-1.9v-2.8c0-1.2-0.7-1.9-1.9-1.9c-1.2,0-1.9,0.7-1.9,1.9V34.6z M63.6,27.9
				l1.8-2l0.7,0.8l-2,1.7L63.6,27.9z"/>
			<path id="XMLID_237_" class="st0" d="M71.7,29c1.3,0,2.7,0.8,2.7,2.4v0.4c0,1.2-0.7,2-1.7,2.3l1.7,3.2h-1.2l-1.6-3H70v3h-1.1V29
				H71.7z M70,29.9v3.4h1.5c1,0,1.7-0.5,1.7-1.6v-0.3c0-1.1-0.7-1.6-1.7-1.6H70z"/>
			<path id="XMLID_234_" class="st0" d="M75.6,29h2.6c1.6,0,3,1.1,3,2.7v3c0,1.9-1.4,2.7-3,2.7h-2.6V29z M80.2,31.7
				c0-1-0.7-1.8-2-1.8h-1.4v6.5h1.4c1.3,0,2-0.7,2-1.8V31.7z"/>
			<path id="XMLID_231_" class="st0" d="M82.4,31.7c0-1.9,1.4-2.8,3-2.8c1.6,0,3,0.9,3,2.8v3c0,1.9-1.4,2.8-3,2.8
				c-1.6,0-3-0.9-3-2.8V31.7z M83.5,34.6c0,1.2,0.7,1.9,1.9,1.9c1.2,0,1.9-0.7,1.9-1.9v-2.8c0-1.2-0.7-1.9-1.9-1.9
				c-1.2,0-1.9,0.7-1.9,1.9V34.6z"/>
			<path id="XMLID_227_" class="st0" d="M89.9,37.3V29h2.7c1.6,0,2.4,0.8,2.4,2.2c0,0.8-0.4,1.5-1.2,1.8c0.9,0.3,1.5,1,1.5,2
				c0,1.6-1.1,2.3-2.7,2.3H89.9z M94,31.2c0-0.8-0.5-1.3-1.4-1.3H91v2.7h1.6C93.5,32.6,94,32.1,94,31.2z M92.5,33.4H91v2.9h1.5
				c1.1,0,1.7-0.5,1.7-1.5C94.3,33.9,93.5,33.4,92.5,33.4z"/>
			<path id="XMLID_224_" class="st0" d="M101.4,37.3l-0.6-2.1h-3.3l-0.6,2.1h-1.2l2.6-8.3h1.6l2.6,8.3H101.4z M97.8,34.3h2.7
				l-1.3-4.4L97.8,34.3z"/>
		</g>
	</g>
</g>
</svg>
