<svg xmlns="http://www.w3.org/2000/svg" width="20" height="15.556" viewBox="0 0 20 15.556">
  <path id="Trazado_619" data-name="Trazado 619" d="M18.3,0H1.667A1.667,1.667,0,0,0,0,1.667V13.889a1.645,1.645,0,0,0,1.667,1.667H18.3A1.675,1.675,0,0,0,20,13.889V1.667A1.7,1.7,0,0,0,18.3,0ZM18.09,13.889H1.875a.184.184,0,0,1-.208-.208V1.875a.2.2,0,0,1,.208-.208H18.09a.2.2,0,0,1,.208.208V13.681A.184.184,0,0,1,18.09,13.889ZM6.667,11.528a.448.448,0,0,0-.417-.417H3.75a.422.422,0,0,0-.417.417v.278a.4.4,0,0,0,.417.417h2.5a.422.422,0,0,0,.417-.417Zm6.667,0a.448.448,0,0,0-.417-.417H8.194a.422.422,0,0,0-.417.417v.278a.4.4,0,0,0,.417.417h4.722a.422.422,0,0,0,.417-.417ZM9.028,10a.422.422,0,0,0,.417-.417V8.194a.448.448,0,0,0-.417-.417H7.083a.422.422,0,0,0-.417.417V9.583A.4.4,0,0,0,7.083,10ZM10,9.583a.4.4,0,0,0,.417.417h1.944a.422.422,0,0,0,.417-.417V8.194a.448.448,0,0,0-.417-.417H10.417A.422.422,0,0,0,10,8.194Zm-6.667,0A.4.4,0,0,0,3.75,10H5.694a.422.422,0,0,0,.417-.417V8.194a.448.448,0,0,0-.417-.417H3.75a.422.422,0,0,0-.417.417ZM16.667,8.194a.448.448,0,0,0-.417-.417h-2.5a.422.422,0,0,0-.417.417V9.583A.4.4,0,0,0,13.75,10h2.5a.422.422,0,0,0,.417-.417Zm0-4.583a.845.845,0,0,0-.833-.833H13.056a.823.823,0,0,0-.833.833V5.278a.8.8,0,0,0,.833.833h2.778a.823.823,0,0,0,.833-.833Z"/>
</svg>
