<svg width="415" height="288" viewBox="0 0 415 288" fill="none" xmlns="http://www.w3.org/2000/svg">
<path d="M34.2316 232.614L45.0671 223.558L29.9458 220.809L22.5874 236.011L28.8139 237.143L22.6685 250.728L41.3475 233.908L34.2316 232.614Z" stroke="#C6C6C6" stroke-width="1.5" stroke-linecap="round" stroke-linejoin="round"/>
<circle cx="126.57" cy="126.57" r="126.57" fill="#F0F0F0"/>
<circle cx="256.756" cy="131.994" r="81.3663" fill="#F4F4F4"/>
<circle cx="332.698" cy="206.128" r="81.3663" fill="#F4F4F4"/>
<path d="M83.6034 40.597H339.983C348.641 40.597 355.375 47.3196 355.375 55.9629V230.75C355.375 239.393 348.641 246.116 339.983 246.116H83.6034C74.9452 246.116 68.211 239.393 68.211 230.75V56.4431C67.73 47.7998 74.9452 40.597 83.6034 40.597Z" fill="white" stroke="#C6C6C6" stroke-width="2.662" stroke-linecap="round" stroke-linejoin="round"/>
<path d="M70.5174 72.3257H354.395" stroke="#C6C6C6" stroke-width="2.662" stroke-linecap="round" stroke-linejoin="round"/>
<circle cx="316.424" cy="57.8603" r="4.67442" fill="white" stroke="#C6C6C6" stroke-width="1.5"/>
<circle cx="332.698" cy="57.8603" r="4.67442" fill="white" stroke="#C6C6C6" stroke-width="1.5"/>
<path d="M386.942 25.314L379.709 30.7384" stroke="#C6C6C6" stroke-width="1.5" stroke-linecap="round" stroke-linejoin="round"/>
<path d="M380.549 25.3142L386.942 31.7069" stroke="#C6C6C6" stroke-width="1.5" stroke-linecap="round" stroke-linejoin="round"/>
<path d="M25.3139 106.68L18.0814 112.104" stroke="#C6C6C6" stroke-width="1.5" stroke-linecap="round" stroke-linejoin="round"/>
<path d="M18.9212 106.681L25.3139 113.073" stroke="#C6C6C6" stroke-width="1.5" stroke-linecap="round" stroke-linejoin="round"/>
<g filter="url(#filter0_d)">
<ellipse cx="211.552" cy="273.029" rx="184.43" ry="5.42442" fill="#EBEBEB"/>
</g>
<path fill-rule="evenodd" clip-rule="evenodd" d="M381.105 181.35C384.498 177.654 389.987 177.223 394.579 179.061C394.793 179.147 395.038 179.049 395.127 178.844C395.216 178.638 395.114 178.402 394.901 178.316C390.084 176.388 384.176 176.787 380.478 180.814C376.712 184.876 377.128 191.451 381.375 195.077C383.098 196.551 385.55 197.193 387.924 197.073C390.298 196.953 392.659 196.067 394.192 194.404L394.194 194.402L394.196 194.4C396.831 191.456 396.515 186.991 393.493 184.419L393.491 184.417L393.491 184.417C392.361 183.466 390.8 182.977 389.283 182.985C387.766 182.994 386.241 183.502 385.216 184.613L385.215 184.614L385.215 184.614C384.411 185.494 383.96 186.756 383.947 187.984C383.933 189.214 384.36 190.471 385.396 191.288C386.915 192.501 389.076 192.413 390.33 190.876C390.677 190.457 390.854 189.776 390.822 189.111C390.79 188.434 390.537 187.685 389.913 187.162C389.738 187.015 389.474 187.033 389.322 187.201C389.17 187.369 389.188 187.624 389.363 187.77C389.766 188.109 389.96 188.621 389.985 189.148C390.011 189.687 389.857 190.154 389.675 190.374L389.673 190.376L389.673 190.376C388.741 191.519 387.126 191.623 385.929 190.666L385.927 190.665C385.141 190.045 384.773 189.053 384.784 187.993C384.796 186.931 385.189 185.864 385.843 185.148C386.674 184.248 387.948 183.799 389.288 183.792C390.628 183.784 391.983 184.22 392.94 185.024C395.616 187.303 395.896 191.262 393.563 193.871C392.213 195.334 390.086 196.156 387.88 196.267C385.674 196.379 383.454 195.776 381.931 194.473L381.93 194.473C378.027 191.141 377.648 185.077 381.104 181.351L381.105 181.35Z" fill="#073256" stroke="#C6C6C6" stroke-miterlimit="10" stroke-linecap="round"/>
<path d="M66.1845 33.5454L59.513 27.9909" stroke="#C6C6C6" stroke-width="1.5" stroke-linecap="round" stroke-linejoin="round"/>
<path d="M64.0992 37.2858L50.6279 33.261" stroke="#C6C6C6" stroke-width="1.5" stroke-linecap="round" stroke-linejoin="round"/>
<path d="M69.9131 31.5153L65.7648 18.0814" stroke="#C6C6C6" stroke-width="1.5" stroke-linecap="round" stroke-linejoin="round"/>
<path d="M208 167.314V142" stroke="#C6C6C6" stroke-width="2.6" stroke-linecap="round" stroke-linejoin="round"/>
<path d="M256.756 197.087H157.308L207.032 106.68L256.756 197.087Z" stroke="#C6C6C6" stroke-width="3.6" stroke-linecap="round" stroke-linejoin="round"/>
<path d="M212 177.5C212 179.444 210.444 181 208.5 181C206.556 181 205 179.444 205 177.5C205 175.556 206.556 174 208.5 174C210.444 174 212 175.556 212 177.5Z" stroke="#C6C6C6" stroke-width="2.6" stroke-linecap="round" stroke-linejoin="round"/>
<defs>
<filter id="filter0_d" x="23.1222" y="267.604" width="376.86" height="18.8488" filterUnits="userSpaceOnUse" color-interpolation-filters="sRGB">
<feFlood flood-opacity="0" result="BackgroundImageFix"/>
<feColorMatrix in="SourceAlpha" type="matrix" values="0 0 0 0 0 0 0 0 0 0 0 0 0 0 0 0 0 0 127 0"/>
<feOffset dy="4"/>
<feGaussianBlur stdDeviation="2"/>
<feColorMatrix type="matrix" values="0 0 0 0 0.921569 0 0 0 0 0.921569 0 0 0 0 0.921569 0 0 0 0.25 0"/>
<feBlend mode="normal" in2="BackgroundImageFix" result="effect1_dropShadow"/>
<feBlend mode="normal" in="SourceGraphic" in2="effect1_dropShadow" result="shape"/>
</filter>
</defs>
</svg>
