<svg width="419" height="316" viewBox="0 0 419 316" fill="none" xmlns="http://www.w3.org/2000/svg">
<circle cx="128.079" cy="128.079" r="128.079" fill="#F0F0F0"/>
<circle cx="259.816" cy="133.568" r="82.3362" fill="#F4F4F4"/>
<circle cx="336.664" cy="208.585" r="82.3362" fill="#F4F4F4"/>
<path d="M84.6002 41.0811H344.036C352.797 41.0811 359.611 47.8838 359.611 56.6301V233.501C359.611 242.247 352.797 249.05 344.036 249.05H84.6002C75.8388 249.05 69.0244 242.247 69.0244 233.501V57.116C68.5376 48.3697 75.8388 41.0811 84.6002 41.0811Z" fill="white" stroke="#C6C6C6" stroke-width="2.662" stroke-linecap="round" stroke-linejoin="round"/>
<path d="M71.358 73.1877H358.62" stroke="#C6C6C6" stroke-width="2.662" stroke-linecap="round" stroke-linejoin="round"/>
<circle cx="320.196" cy="58.5501" r="4.73908" fill="white" stroke="#C6C6C6" stroke-width="1.5"/>
<circle cx="336.664" cy="58.5501" r="4.73908" fill="white" stroke="#C6C6C6" stroke-width="1.5"/>
<path d="M391.554 25.6157L384.236 31.1047" stroke="#C6C6C6" stroke-width="1.5" stroke-linecap="round" stroke-linejoin="round"/>
<path d="M385.086 25.6158L391.555 32.0847" stroke="#C6C6C6" stroke-width="1.5" stroke-linecap="round" stroke-linejoin="round"/>
<path d="M25.6158 107.952L18.297 113.441" stroke="#C6C6C6" stroke-width="1.5" stroke-linecap="round" stroke-linejoin="round"/>
<path d="M19.1467 107.952L25.6156 114.421" stroke="#C6C6C6" stroke-width="1.5" stroke-linecap="round" stroke-linejoin="round"/>
<g filter="url(#filter0_d)">
<ellipse cx="214.074" cy="276.284" rx="186.629" ry="5.48908" fill="#EBEBEB"/>
</g>
<path fill-rule="evenodd" clip-rule="evenodd" d="M385.648 183.512C389.081 179.772 394.636 179.336 399.283 181.196C399.499 181.283 399.747 181.184 399.837 180.976C399.927 180.767 399.824 180.529 399.608 180.442C394.734 178.491 388.755 178.895 385.014 182.97C381.202 187.08 381.623 193.733 385.921 197.402C387.665 198.894 390.146 199.544 392.548 199.422C394.951 199.301 397.34 198.405 398.891 196.722L398.893 196.72L398.895 196.718C401.561 193.738 401.241 189.22 398.184 186.617L398.182 186.616L398.182 186.616C397.038 185.654 395.458 185.158 393.924 185.167C392.388 185.175 390.845 185.69 389.808 186.814L389.807 186.815L389.807 186.815C388.993 187.706 388.537 188.983 388.523 190.226C388.51 191.47 388.942 192.742 389.99 193.569C391.527 194.796 393.714 194.707 394.983 193.152C395.334 192.728 395.513 192.038 395.481 191.366C395.448 190.68 395.192 189.923 394.561 189.393C394.384 189.245 394.116 189.263 393.963 189.433C393.809 189.603 393.827 189.861 394.004 190.009C394.412 190.351 394.608 190.87 394.634 191.403C394.66 191.949 394.504 192.421 394.32 192.643L394.318 192.646L394.318 192.646C393.374 193.803 391.741 193.907 390.529 192.939L390.527 192.938C389.732 192.311 389.359 191.307 389.371 190.234C389.383 189.16 389.781 188.08 390.442 187.355C391.283 186.445 392.572 185.991 393.928 185.983C395.285 185.976 396.655 186.416 397.624 187.23C400.331 189.536 400.615 193.542 398.255 196.182C396.889 197.663 394.736 198.494 392.504 198.607C390.271 198.72 388.025 198.11 386.483 196.792L386.483 196.792C382.534 193.42 382.149 187.284 385.646 183.513L385.648 183.512Z" fill="#073256" stroke="#C6C6C6" stroke-miterlimit="10" stroke-linecap="round"/>
<path d="M208.841 184.799C231.577 184.799 250.009 166.368 250.009 143.631C250.009 120.894 231.577 102.463 208.841 102.463C186.104 102.463 167.672 120.894 167.672 143.631C167.672 166.368 186.104 184.799 208.841 184.799Z" fill="white" stroke="#C6C6C6" stroke-width="3.6" stroke-linecap="round" stroke-linejoin="round"/>
<path d="M237.201 173.821L275.624 204.926" stroke="#C6C6C6" stroke-width="3.6" stroke-linecap="round" stroke-linejoin="round"/>
<path d="M189.174 311.205H181.974V300.702H189.174V302.804H184.076V304.906H187.526V307.008H184.076V309.103H189.174V311.205ZM192.433 311.205H190.434V303.361H190.917L191.576 304.291C191.898 303.998 192.265 303.773 192.675 303.617C193.085 303.456 193.51 303.375 193.949 303.375H195.714V305.368H193.949C193.739 305.368 193.542 305.407 193.356 305.485C193.17 305.563 193.009 305.67 192.873 305.807C192.736 305.944 192.628 306.105 192.55 306.291C192.472 306.476 192.433 306.674 192.433 306.884V311.205ZM198.644 311.205H196.645V303.361H197.128L197.787 304.291C198.109 303.998 198.476 303.773 198.886 303.617C199.296 303.456 199.721 303.375 200.16 303.375H201.925V305.368H200.16C199.95 305.368 199.752 305.407 199.567 305.485C199.381 305.563 199.22 305.67 199.083 305.807C198.947 305.944 198.839 306.105 198.761 306.291C198.683 306.476 198.644 306.674 198.644 306.884V311.205ZM210.29 307.213C210.29 307.799 210.185 308.346 209.975 308.854C209.765 309.357 209.479 309.794 209.118 310.165C208.756 310.531 208.332 310.822 207.843 311.037C207.36 311.247 206.84 311.352 206.283 311.352C205.731 311.352 205.211 311.247 204.723 311.037C204.24 310.822 203.815 310.531 203.449 310.165C203.087 309.794 202.802 309.357 202.592 308.854C202.382 308.346 202.277 307.799 202.277 307.213C202.277 306.618 202.382 306.066 202.592 305.558C202.802 305.05 203.087 304.613 203.449 304.247C203.815 303.876 204.24 303.585 204.723 303.375C205.211 303.166 205.731 303.061 206.283 303.061C206.84 303.061 207.36 303.161 207.843 303.361C208.332 303.556 208.756 303.837 209.118 304.203C209.479 304.564 209.765 305.001 209.975 305.514C210.185 306.022 210.29 306.588 210.29 307.213ZM208.275 307.213C208.275 306.891 208.222 306.601 208.114 306.342C208.012 306.078 207.87 305.854 207.689 305.668C207.509 305.478 207.296 305.333 207.052 305.236C206.813 305.133 206.557 305.082 206.283 305.082C206.01 305.082 205.751 305.133 205.507 305.236C205.268 305.333 205.058 305.478 204.877 305.668C204.701 305.854 204.562 306.078 204.459 306.342C204.357 306.601 204.306 306.891 204.306 307.213C204.306 307.516 204.357 307.797 204.459 308.056C204.562 308.314 204.701 308.539 204.877 308.729C205.058 308.92 205.268 309.071 205.507 309.184C205.751 309.291 206.01 309.345 206.283 309.345C206.557 309.345 206.813 309.293 207.052 309.191C207.296 309.088 207.509 308.944 207.689 308.759C207.87 308.573 208.012 308.349 208.114 308.085C208.222 307.821 208.275 307.531 208.275 307.213ZM213.395 311.205H211.396V303.361H211.879L212.538 304.291C212.86 303.998 213.227 303.773 213.637 303.617C214.047 303.456 214.472 303.375 214.911 303.375H216.676V305.368H214.911C214.701 305.368 214.503 305.407 214.318 305.485C214.132 305.563 213.971 305.67 213.834 305.807C213.698 305.944 213.59 306.105 213.512 306.291C213.434 306.476 213.395 306.674 213.395 306.884V311.205ZM229.882 309.103H228.834V311.205H226.732V309.103H221.481L222.653 300.702H224.755L223.839 307.008H226.732V301.757H228.834V307.008H229.882V309.103ZM237.528 305.954C237.528 304.787 237.333 303.92 236.942 303.354C236.557 302.787 236.017 302.504 235.324 302.504C234.635 302.504 234.101 302.785 233.72 303.346C233.339 303.908 233.148 304.777 233.148 305.954C233.148 307.121 233.339 307.987 233.72 308.554C234.101 309.12 234.635 309.403 235.324 309.403C235.67 309.403 235.98 309.335 236.254 309.198C236.527 309.057 236.757 308.844 236.942 308.561C237.133 308.278 237.277 307.921 237.375 307.492C237.477 307.057 237.528 306.544 237.528 305.954ZM239.528 305.954C239.528 306.95 239.418 307.792 239.198 308.48C238.979 309.169 238.678 309.726 238.297 310.15C237.917 310.575 237.47 310.883 236.957 311.073C236.449 311.259 235.905 311.352 235.324 311.352C234.743 311.352 234.196 311.256 233.683 311.066C233.175 310.871 232.731 310.561 232.35 310.136C231.974 309.706 231.676 309.149 231.457 308.466C231.237 307.777 231.127 306.94 231.127 305.954C231.127 304.958 231.237 304.118 231.457 303.434C231.676 302.746 231.974 302.189 232.35 301.764C232.731 301.339 233.175 301.032 233.683 300.841C234.196 300.651 234.743 300.556 235.324 300.556C235.905 300.556 236.449 300.653 236.957 300.849C237.47 301.039 237.917 301.349 238.297 301.779C238.678 302.208 238.979 302.765 239.198 303.449C239.418 304.132 239.528 304.967 239.528 305.954ZM248.983 309.103H247.936V311.205H245.834V309.103H240.583L241.754 300.702H243.856L242.941 307.008H245.834V301.757H247.936V307.008H248.983V309.103Z" fill="#CDCDCD"/>
<path d="M66.9731 33.9454L60.2221 28.3248" stroke="#C6C6C6" stroke-width="1.5" stroke-linecap="round" stroke-linejoin="round"/>
<path d="M64.8633 37.7307L51.2314 33.6579" stroke="#C6C6C6" stroke-width="1.5" stroke-linecap="round" stroke-linejoin="round"/>
<path d="M70.7466 31.8911L66.5488 18.2972" stroke="#C6C6C6" stroke-width="1.5" stroke-linecap="round" stroke-linejoin="round"/>
<path d="M206.045 153.421C206.081 151.308 206.367 149.607 206.905 148.318C207.442 147.029 208.596 145.516 210.369 143.78C212.141 142.025 213.278 140.79 213.78 140.074C214.299 139.34 214.693 138.543 214.961 137.684C215.248 136.806 215.391 135.813 215.391 134.703C215.391 132.465 214.791 130.71 213.592 129.439C212.41 128.15 210.754 127.505 208.623 127.505C206.475 127.505 204.738 128.123 203.413 129.358C202.106 130.576 201.435 132.232 201.399 134.327H198.203C198.239 131.39 199.233 129.045 201.184 127.291C203.136 125.518 205.615 124.632 208.623 124.632C211.703 124.632 214.129 125.536 215.901 127.344C217.691 129.135 218.587 131.569 218.587 134.649C218.587 136.583 218.148 138.4 217.271 140.101C216.393 141.784 214.728 143.753 212.276 146.009C210.253 147.71 209.241 150.18 209.241 153.421H206.045ZM205.615 162.391C205.615 161.782 205.803 161.272 206.179 160.86C206.573 160.43 207.119 160.215 207.818 160.215C208.498 160.215 209.035 160.43 209.429 160.86C209.841 161.272 210.047 161.782 210.047 162.391C210.047 162.981 209.841 163.483 209.429 163.895C209.035 164.288 208.498 164.485 207.818 164.485C207.119 164.485 206.573 164.288 206.179 163.895C205.803 163.483 205.615 162.981 205.615 162.391Z" fill="#C6C6C6"/>
<defs>
<filter id="filter0_d" x="23.4452" y="270.795" width="381.258" height="18.9782" filterUnits="userSpaceOnUse" color-interpolation-filters="sRGB">
<feFlood flood-opacity="0" result="BackgroundImageFix"/>
<feColorMatrix in="SourceAlpha" type="matrix" values="0 0 0 0 0 0 0 0 0 0 0 0 0 0 0 0 0 0 127 0"/>
<feOffset dy="4"/>
<feGaussianBlur stdDeviation="2"/>
<feColorMatrix type="matrix" values="0 0 0 0 0.921569 0 0 0 0 0.921569 0 0 0 0 0.921569 0 0 0 0.25 0"/>
<feBlend mode="normal" in2="BackgroundImageFix" result="effect1_dropShadow"/>
<feBlend mode="normal" in="SourceGraphic" in2="effect1_dropShadow" result="shape"/>
</filter>
</defs>
</svg>
