<svg width="42" height="42" viewBox="0 0 42 42" fill="none" xmlns="http://www.w3.org/2000/svg">
<path fill-rule="evenodd" clip-rule="evenodd" d="M21.0001 1.87196C10.4359 1.87196 1.87196 10.4359 1.87196 21C1.87196 31.5641 10.4359 40.128 21.0001 40.128C31.5642 40.128 40.128 31.5641 40.128 21C40.128 10.4359 31.5642 1.87196 21.0001 1.87196ZM0 21C0 9.40201 9.40209 0 21.0001 0C32.598 0 42 9.40202 42 21C42 32.598 32.598 42 21.0001 42C9.40209 42 0 32.598 0 21Z" fill="white"/>
<path fill-rule="evenodd" clip-rule="evenodd" d="M32.5569 13.0418C32.9524 13.4068 32.9758 14.0218 32.6092 14.4155L19.1126 28.9062C18.9329 29.0991 18.6823 29.2113 18.418 29.2172C18.1537 29.223 17.8984 29.122 17.7103 28.9371L9.42096 20.7927C9.0371 20.4156 9.03311 19.8001 9.41204 19.4181C9.79097 19.036 10.4093 19.0321 10.7932 19.4092L18.3653 26.8489L31.1767 13.0938C31.5434 12.7001 32.1613 12.6768 32.5569 13.0418Z" fill="white"/>
</svg>
