<svg width="15" height="16" viewBox="0 0 15 16" fill="none" xmlns="http://www.w3.org/2000/svg">
<path fill-rule="evenodd" clip-rule="evenodd" d="M0.0810547 8.76797C0.0810547 4.89182 3.22331 1.79366 7.09406 1.79366H8.17782C8.37427 1.79366 8.53353 1.95291 8.53353 2.14936C8.53353 2.34581 8.37427 2.50506 8.17782 2.50506H7.09406C3.61079 2.50506 0.792459 5.29011 0.792459 8.76797C0.792459 12.2512 3.5775 15.0696 7.05536 15.0696C10.5352 15.0696 13.3203 12.2871 13.357 8.80294C13.3591 8.6065 13.52 8.44893 13.7165 8.451C13.9129 8.45307 14.0705 8.61399 14.0684 8.81042C14.0277 12.6802 10.9295 15.781 7.05536 15.781C3.1792 15.781 0.0810547 12.6387 0.0810547 8.76797Z" fill="#1C7CD5"/>
<path fill-rule="evenodd" clip-rule="evenodd" d="M6.53308 -0.114813C6.67199 -0.253722 6.89721 -0.253721 7.03612 -0.11481L9.04878 1.89787C9.18154 2.03063 9.18825 2.24372 9.06411 2.38457L7.05145 4.66819C6.92156 4.81557 6.69679 4.82975 6.54941 4.69985C6.40203 4.56996 6.38786 4.34519 6.51775 4.19781L8.30958 2.16475L6.53308 0.388226C6.39417 0.249315 6.39417 0.0240972 6.53308 -0.114813Z" fill="#1C7CD5"/>
</svg>
