<svg width="17" height="17" viewBox="0 0 17 17" fill="none" xmlns="http://www.w3.org/2000/svg">
<path fill-rule="evenodd" clip-rule="evenodd" d="M0.538095 11.1267C0.735498 11.1267 0.895525 11.2867 0.895525 11.4841V16.1051H15.4658V11.4841C15.4658 11.2867 15.6258 11.1267 15.8232 11.1267C16.0206 11.1267 16.1807 11.2867 16.1807 11.4841V16.4625C16.1807 16.6599 16.0206 16.8199 15.8232 16.8199H0.538095C0.340691 16.8199 0.180664 16.6599 0.180664 16.4625V11.4841C0.180664 11.2867 0.340691 11.1267 0.538095 11.1267Z" fill="#1C7CD5"/>
<path fill-rule="evenodd" clip-rule="evenodd" d="M8.20017 0.781006C8.39758 0.781006 8.5576 0.941033 8.5576 1.13844V12.4564C8.5576 12.6538 8.39758 12.8138 8.20017 12.8138C8.00277 12.8138 7.84274 12.6538 7.84274 12.4564V1.13844C7.84274 0.941033 8.00277 0.781006 8.20017 0.781006Z" fill="#1C7CD5"/>
<path fill-rule="evenodd" clip-rule="evenodd" d="M11.746 8.53531C11.8924 8.66771 11.9038 8.89374 11.7714 9.04016L8.46545 12.6961C8.39793 12.7708 8.30205 12.8135 8.20138 12.8138C8.1007 12.8141 8.00458 12.772 7.93662 12.6977L4.5918 9.0417C4.45855 8.89605 4.46859 8.66996 4.61424 8.53671C4.75989 8.40346 4.98597 8.41351 5.11922 8.55916L8.19879 11.9252L11.2412 8.5607C11.3736 8.41428 11.5996 8.40291 11.746 8.53531Z" fill="#1C7CD5"/>
</svg>
