<svg width="118" height="47" viewBox="0 0 118 47" fill="none" xmlns="http://www.w3.org/2000/svg">
<path d="M26.7033 0C16.13 0 7.17747 7.24298 4.47627 17.1339H0L11.4222 27.1807C11.1135 25.7009 10.9592 24.8442 10.9592 23.2087C10.9592 21.028 11.4222 19.0031 12.194 17.0561C14.5865 11.2928 20.2204 7.24298 26.7805 7.24298C32.7231 7.24298 37.9711 10.5919 40.5952 15.4984V4.67289C36.7363 1.71339 31.9513 0 26.7033 0Z" fill="#F4B34C"/>
<path d="M41.9843 19.3925C42.293 20.6386 42.4473 21.7289 42.4473 23.2087C42.4473 25.3893 41.9843 27.4921 41.2125 29.4392C38.82 35.1245 33.1861 39.1744 26.7032 39.1744C20.6062 39.1744 15.281 35.6697 12.657 30.5295V41.6666C16.5158 44.704 21.378 46.4952 26.7032 46.4952C37.2765 46.4952 46.229 39.2522 48.9302 29.4392H53.4065L41.9843 19.3925Z" fill="#ED8829"/>
<path d="M66.5121 29L63.8881 24.552C65.3761 23.944 66.0481 22.584 66.0481 21.192C66.0481 20.056 65.5841 19 64.7041 18.36C63.9841 17.832 63.1041 17.592 61.9681 17.592H56.9761V29H59.8401V24.968H61.1361L63.3921 29H66.5121ZM63.2641 21.336C63.2641 22.264 62.6241 22.856 61.6001 22.856H59.8241V19.832H61.6001C62.5601 19.832 63.2641 20.28 63.2641 21.336Z" fill="#22AADE"/>
<path d="M75.9162 29V26.664H70.3322V24.392H75.0042V22.088H70.3322V19.912H75.8842V17.592H67.4842V29H75.9162Z" fill="#22AADE"/>
<path d="M87.1593 29V17.592H84.5033V24.04H84.4713L80.1353 17.592H77.3673V29H80.0073V22.296H80.0393L84.5033 29H87.1593Z" fill="#22AADE"/>
<path d="M97.5337 19.88V17.592H88.1897V19.896H91.4377V29H94.3017V19.88H97.5337Z" fill="#22AADE"/>
<path d="M107.562 29L103.562 17.576H100.49L96.4418 29H99.1778L99.8818 26.872H103.962L104.65 29H107.562ZM103.258 24.632H100.57L101.898 20.504H101.946L103.258 24.632Z" fill="#22AADE"/>
<path d="M117.017 25.464C117.017 23.624 115.833 22.728 114.153 22.264C113.865 22.184 112.745 21.896 112.473 21.816C111.625 21.592 110.937 21.464 110.937 20.744C110.937 19.976 111.657 19.64 112.489 19.64C113.385 19.64 114.345 20.008 114.873 20.728L116.729 19.176C115.817 17.96 114.441 17.4 112.441 17.4C109.897 17.4 108.121 18.936 108.121 21.08C108.121 23.016 109.481 23.864 111.065 24.264C111.449 24.36 112.761 24.712 113.049 24.824C113.625 25.048 114.089 25.256 114.089 25.88C114.089 26.68 113.145 26.968 112.297 26.968C111.097 26.968 109.977 26.344 109.401 25.512L107.593 27.144C108.681 28.648 110.425 29.192 112.425 29.192C114.777 29.192 117.017 27.96 117.017 25.464Z" fill="#22AADE"/>
<path d="M30.515 29V17.592H26.963L24.787 23.512L22.547 17.592H19.011V29H21.651V21.752H21.683L23.779 27.464H25.747L27.827 21.736H27.875V29H30.515Z" fill="#22AADE"/>
<path d="M34.9925 29V17.592H32.1285V29H34.9925Z" fill="#22AADE"/>
</svg>
