<svg width="156" height="38" viewBox="0 0 156 38" fill="none" xmlns="http://www.w3.org/2000/svg">
<g clip-path="url(#clip0)">
<path d="M49.3999 3.6918H51.9365C53.3316 3.6918 54.4731 4.64658 54.4731 6.04691V7.7655C54.4731 9.29314 53.2048 10.1843 51.9365 10.1843H49.3999V3.6918ZM51.9365 9.16584C52.5706 9.16584 53.3316 8.84758 53.3316 7.89281V5.98326C53.3316 5.21944 52.634 4.77388 51.8731 4.77388H50.6682V9.16584H51.9365Z" fill="#22AADE"/>
<path d="M55.7415 3.6918H56.9463V10.1843H55.7415V3.6918Z" fill="#22AADE"/>
<path d="M58.3413 3.6918H60.8779C62.0828 3.6918 63.0974 4.39197 63.0974 5.72865C63.0974 6.49247 62.7169 7.31994 61.8291 7.6382L63.4145 10.2479H62.0828L60.5608 7.82916H59.5462V10.2479H58.3413V3.6918ZM60.7511 6.74708C61.4486 6.74708 61.8925 6.42882 61.8925 5.72865C61.8925 4.96483 61.3852 4.71023 60.6876 4.71023H59.4828V6.74708H60.7511Z" fill="#22AADE"/>
<path d="M64.3022 3.6918H68.8047V4.77388H65.5071V6.36517H68.4242V7.44725H65.5071V9.16584H68.8047V10.2479H64.3022V3.6918Z" fill="#22AADE"/>
<path d="M69.6926 8.08379V6.04693C69.6926 4.5193 70.8341 3.62817 72.2926 3.62817C73.4975 3.62817 74.7658 4.32834 74.7658 5.79233V5.98328H73.5609V5.85598C73.5609 5.02851 72.7999 4.6466 72.2292 4.6466C71.5951 4.6466 70.8341 4.96486 70.8341 5.91963V8.02013C70.8341 8.78395 71.5316 9.22951 72.2926 9.22951C72.8634 9.22951 73.5609 8.91126 73.5609 8.02013V7.95648H74.7024V8.14744C74.7024 9.61142 73.4975 10.3116 72.2926 10.3116C70.8975 10.3752 69.6926 9.54777 69.6926 8.08379Z" fill="#22AADE"/>
<path d="M75.717 8.08379V6.04693C75.717 4.5193 76.8585 3.62817 78.317 3.62817C79.5219 3.62817 80.7902 4.32834 80.7902 5.79233V5.98328H79.6487V5.85598C79.6487 5.02851 78.8878 4.6466 78.317 4.6466C77.6829 4.6466 76.9219 4.96486 76.9219 5.91963V8.02013C76.9219 8.78395 77.6195 9.22951 78.3805 9.22951C78.9512 9.22951 79.6487 8.91126 79.6487 8.02013V7.95648H80.7902V8.14744C80.7902 9.61142 79.5853 10.3116 78.3805 10.3116C76.9219 10.3752 75.717 9.54777 75.717 8.08379Z" fill="#22AADE"/>
<path d="M81.9316 3.6918H83.1365V10.1843H81.9316V3.6918Z" fill="#22AADE"/>
<path d="M84.4048 8.08376V6.04691C84.4048 4.51927 85.7365 3.62815 87.0048 3.62815C88.3999 3.62815 89.6048 4.58292 89.6048 5.98326V7.95646C89.6048 9.4841 88.2731 10.3752 87.0048 10.3752C85.6097 10.3752 84.4048 9.54775 84.4048 8.08376ZM88.3999 8.02011V5.91961C88.3999 5.15579 87.7023 4.71023 86.9414 4.71023C86.3072 4.71023 85.5462 5.02849 85.5462 5.98326V8.08376C85.5462 8.84758 86.2438 9.29314 87.0048 9.29314C87.6389 9.29314 88.3999 8.97488 88.3999 8.02011ZM87.2584 1.52765H88.5267L87.3853 3.11894H86.4975L87.2584 1.52765Z" fill="#22AADE"/>
<path d="M90.8097 3.6918H91.9512L94.7415 8.14741V3.6918H95.8829V10.1843H94.678L91.8878 5.72865V10.1843H90.7463V3.6918H90.8097Z" fill="#22AADE"/>
<path d="M99.5608 8.08379V6.04693C99.5608 4.5193 100.702 3.62817 102.161 3.62817C103.366 3.62817 104.634 4.26469 104.634 5.66502V5.72868H103.492C103.492 4.90121 102.732 4.6466 102.161 4.6466C101.527 4.6466 100.766 4.96486 100.766 5.91963V8.02013C100.766 8.78395 101.463 9.22951 102.224 9.22951C102.922 9.22951 103.492 8.91126 103.492 8.02013V7.82918H102.288V6.7471H104.634V8.14744C104.634 9.61142 103.429 10.3116 102.224 10.3116C100.766 10.3752 99.5608 9.54777 99.5608 8.08379Z" fill="#22AADE"/>
<path d="M105.839 3.6918H110.341V4.77388H107.044V6.36517H109.961V7.44725H107.044V9.16584H110.341V10.2479H105.839V3.6918Z" fill="#22AADE"/>
<path d="M111.546 3.6918H112.688L115.478 8.14741V3.6918H116.619V10.1843H115.415L112.624 5.72865V10.1843H111.483V3.6918H111.546Z" fill="#22AADE"/>
<path d="M118.078 3.6918H122.58V4.77388H119.283V6.36517H122.2V7.44725H119.283V9.16584H122.58V10.2479H118.078V3.6918Z" fill="#22AADE"/>
<path d="M123.849 3.6918H126.385C127.59 3.6918 128.605 4.39197 128.605 5.72865C128.605 6.49247 128.224 7.31994 127.336 7.6382L128.922 10.2479H127.59L126.068 7.82916H125.054V10.2479H123.849V3.6918ZM126.258 6.74708C126.956 6.74708 127.4 6.42882 127.4 5.72865C127.4 4.96483 126.893 4.71023 126.195 4.71023H124.99V6.74708H126.258Z" fill="#22AADE"/>
<path d="M132.029 3.6918H133.107L135.517 10.2479H134.249L133.805 8.84758H131.268L130.761 10.2479H129.556L132.029 3.6918ZM133.424 7.82916L132.536 5.21944L131.649 7.82916H133.424Z" fill="#22AADE"/>
<path d="M136.341 3.6918H137.546V9.16584H140.336V10.2479H136.341V3.6918Z" fill="#22AADE"/>
<path d="M143.824 3.6918H146.361C147.756 3.6918 148.897 4.64658 148.897 6.04691V7.7655C148.897 9.29314 147.629 10.1843 146.361 10.1843H143.824V3.6918ZM146.297 9.16584C146.932 9.16584 147.693 8.84758 147.693 7.89281V5.98326C147.693 5.21944 146.995 4.77388 146.234 4.77388H145.029V9.16584H146.297Z" fill="#22AADE"/>
<path d="M150.102 3.6918H154.605V4.77388H151.307V6.36517H154.224V7.44725H151.307V9.16584H154.605V10.2479H150.102V3.6918Z" fill="#22AADE"/>
<path d="M49.3999 14.0034H58.1511C62.717 14.0034 65.317 16.6767 65.317 20.4322C65.317 22.9146 64.1121 25.3333 61.5755 26.4154L66.1414 34.3719H60.6877L56.6926 27.1792H54.4097V34.3719H49.3999V14.0034ZM57.5804 23.3601C59.4194 23.3601 60.4975 22.2781 60.4975 20.6231C60.4975 18.9045 59.356 17.9498 57.5804 17.9498H54.4731V23.3601H57.5804Z" fill="#22AADE"/>
<path d="M68.4878 14.0034H83.2634V18.1407H73.561V22.0235H81.7414V26.0972H73.561V30.1709H83.3268V34.3082H68.4878V14.0034Z" fill="#22AADE"/>
<path d="M86.3073 14.0034H91.1902L98.8 25.4606H98.8634V14.0034H103.493V34.3082H98.8L90.9366 22.3417H90.8732V34.3082H86.2439V14.0034H86.3073Z" fill="#22AADE"/>
<path d="M111.61 18.0771H105.902V14.0034H122.327V18.0771H116.619V34.3082H111.61V18.0771Z" fill="#22AADE"/>
<path d="M128.161 13.9397H133.551L140.59 34.3082H135.453L134.249 30.4891H127.083L125.814 34.3082H121.058L128.161 13.9397ZM132.917 26.5427L130.634 19.1591H130.571L128.224 26.5427H132.917Z" fill="#22AADE"/>
<path d="M154.288 19.2228C151.498 17.6951 150.102 17.6315 148.517 17.6315C147.059 17.6315 145.79 18.1407 145.79 19.541C145.79 20.6868 146.932 21.196 148.454 21.5779L151.624 22.4054C154.478 23.1692 156.063 25.397 156.063 28.0067C156.063 32.7806 152.639 34.6265 148.454 34.6265C145.917 34.6265 144.459 34.3719 141.795 33.0352V28.5159C143.507 29.5343 145.346 30.6801 148.263 30.6801C149.785 30.6801 151.434 30.1709 151.434 28.7705C151.434 27.4975 150.419 27.0519 149.215 26.7337L145.727 25.8425C143 25.0787 140.971 23.4874 140.971 20.2412C140.971 16.4221 144.205 13.6851 148.644 13.6851C150.61 13.6851 152.259 14.1307 154.415 15.0218V19.2228H154.288Z" fill="#22AADE"/>
<path d="M21.9415 0C13.2537 0 5.89756 5.9196 3.67805 14.0034H0L9.38536 22.2144C9.13171 21.005 9.00488 20.3049 9.00488 18.9682C9.00488 17.1859 9.38536 15.531 10.0195 13.9397C11.9854 9.22948 16.6146 5.9196 22.0049 5.9196C26.8878 5.9196 31.2 8.65662 33.3561 12.6667V3.8191C30.1854 1.40034 26.2537 0 21.9415 0Z" fill="#F4B34C"/>
<path d="M34.4975 15.8492C34.7511 16.8677 34.878 17.7588 34.878 18.9682C34.878 20.7504 34.4975 22.469 33.8633 24.0603C31.8975 28.7069 27.2682 32.0167 21.9414 32.0167C16.9316 32.0167 12.556 29.1524 10.3999 24.9514V34.0536C13.5706 36.536 17.5658 38 21.9414 38C30.6292 38 37.9853 32.0804 40.2048 24.0603H43.8828L34.4975 15.8492Z" fill="#ED8829"/>
</g>
<defs>
<clipPath id="clip0">
<rect width="155.78" height="38" fill="white"/>
</clipPath>
</defs>
</svg>
