<?xml version="1.0" encoding="utf-8"?>
<!-- Generator: Adobe Illustrator 19.0.0, SVG Export Plug-In . SVG Version: 6.00 Build 0)  -->
<svg version="1.1" id="Capa_1" xmlns="http://www.w3.org/2000/svg" xmlns:xlink="http://www.w3.org/1999/xlink" x="0px" y="0px"
	 viewBox="-154.2 405.6 62.6 30.3" enable-background="new -154.2 405.6 62.6 30.3" xml:space="preserve">
<g opacity="0.66">
	<polygon fill-rule="evenodd" clip-rule="evenodd" fill="#FFFFFF" points="-139.8,419.4 -139.8,414.8 -141.4,418.2 -142.2,418.2 
		-143.8,414.8 -143.8,419.4 -144.9,419.4 -144.9,412.4 -143.8,412.4 -141.8,416.8 -139.8,412.4 -138.7,412.4 -138.7,419.4 	"/>
	<path fill-rule="evenodd" clip-rule="evenodd" fill="#FFFFFF" d="M-137.4,412.4h1.1v1.1h-1.1V412.4z M-137.4,419.4L-137.4,419.4v-5
		h1v5H-137.4z"/>
	<path fill-rule="evenodd" clip-rule="evenodd" fill="#FFFFFF" d="M-132.2,419.4v-3c0-0.8-0.4-1.1-1-1.1c-0.6,0-1,0.3-1,1.1v3h-1v-5
		h1v0.5c0.3-0.4,0.8-0.6,1.3-0.6c0.5,0,0.9,0.2,1.2,0.5c0.4,0.4,0.5,0.8,0.5,1.4v3.2H-132.2z"/>
	<path fill-rule="evenodd" clip-rule="evenodd" fill="#FFFFFF" d="M-130.1,412.4h1.1v1.1h-1.1V412.4z M-130.1,419.4L-130.1,419.4v-5
		h1v5H-130.1z"/>
	<path fill-rule="evenodd" clip-rule="evenodd" fill="#FFFFFF" d="M-126.3,419.5c-0.8,0-1.5-0.1-2.1-0.7l0.7-0.7
		c0.4,0.4,0.9,0.5,1.4,0.5c0.6,0,1.1-0.2,1.1-0.7c0-0.3-0.2-0.6-0.7-0.6l-0.8-0.1c-0.9-0.1-1.5-0.5-1.5-1.4c0-1,0.8-1.5,1.9-1.5
		c0.7,0,1.4,0.2,1.8,0.6l-0.6,0.6c-0.3-0.3-0.8-0.4-1.2-0.4c-0.6,0-0.9,0.3-0.9,0.6c0,0.3,0.2,0.5,0.7,0.6l0.8,0.1
		c0.9,0.1,1.5,0.5,1.5,1.4C-124.2,419-125.1,419.5-126.3,419.5"/>
	<path fill-rule="evenodd" clip-rule="evenodd" fill="#FFFFFF" d="M-122,419.4c-0.9,0-1.4-0.7-1.4-1.4v-2.7h-0.6v-0.8h0.6V413h1v1.5
		h1v0.8h-1v2.7c0,0.4,0.2,0.6,0.6,0.6h0.4v0.9H-122z"/>
	<path fill-rule="evenodd" clip-rule="evenodd" fill="#FFFFFF" d="M-119.9,417.2c0,0.9,0.5,1.4,1.3,1.4c0.6,0,0.9-0.2,1.2-0.5
		l0.6,0.6c-0.5,0.5-1,0.8-1.9,0.8c-1.2,0-2.2-0.7-2.2-2.6c0-1.6,0.8-2.5,2.1-2.5c1.3,0,2.1,1,2.1,2.4v0.4H-119.9z M-117.8,415.9
		L-117.8,415.9c-0.2-0.4-0.5-0.6-1-0.6c-0.5,0-0.8,0.3-1,0.6c-0.1,0.2-0.1,0.4-0.1,0.7h2.2C-117.7,416.2-117.7,416.1-117.8,415.9"/>
	<path fill-rule="evenodd" clip-rule="evenodd" fill="#FFFFFF" d="M-113,415.6c-0.2-0.2-0.4-0.3-0.7-0.3c-0.5,0-1,0.4-1,1.1v3h-1v-5
		h1v0.5c0.3-0.4,0.8-0.6,1.3-0.6c0.5,0,0.8,0.1,1.2,0.5L-113,415.6z"/>
	<path fill-rule="evenodd" clip-rule="evenodd" fill="#FFFFFF" d="M-111.9,412.4h1.1v1.1h-1.1V412.4z M-111.9,419.4L-111.9,419.4v-5
		h1v5H-111.9z"/>
	<path fill-rule="evenodd" clip-rule="evenodd" fill="#FFFFFF" d="M-106.4,418.9c-0.3,0.3-0.8,0.6-1.5,0.6c-0.7,0-1.2-0.3-1.5-0.6
		c-0.5-0.5-0.6-1.1-0.6-2c0-0.8,0.1-1.5,0.6-2c0.3-0.3,0.8-0.6,1.5-0.6c0.7,0,1.2,0.3,1.5,0.6c0.5,0.5,0.6,1.1,0.6,2
		C-105.8,417.8-105.9,418.4-106.4,418.9 M-107.1,415.6L-107.1,415.6c-0.2-0.2-0.4-0.3-0.7-0.3c-0.3,0-0.5,0.1-0.7,0.3
		c-0.3,0.3-0.3,0.8-0.3,1.4c0,0.5,0,1.1,0.3,1.4c0.2,0.2,0.4,0.3,0.7,0.3c0.3,0,0.6-0.1,0.7-0.3c0.3-0.3,0.3-0.8,0.3-1.4
		C-106.8,416.4-106.8,415.9-107.1,415.6"/>
	<path fill-rule="evenodd" clip-rule="evenodd" fill="#FFFFFF" d="M-100,419.4v-0.5c-0.4,0.5-0.8,0.6-1.3,0.6
		c-0.5,0-0.9-0.2-1.2-0.4c-0.5-0.5-0.6-1.4-0.6-2.1c0-0.8,0.1-1.6,0.6-2.1c0.3-0.3,0.7-0.4,1.2-0.4c0.5,0,0.9,0.1,1.3,0.6v-2.5h1v7
		H-100z M-101.1,415.3L-101.1,415.3c-0.9,0-1,0.8-1,1.7c0,0.9,0.1,1.7,1,1.7c0.9,0,1-0.8,1-1.7
		C-100.1,416.1-100.2,415.3-101.1,415.3"/>
	<path fill-rule="evenodd" clip-rule="evenodd" fill="#FFFFFF" d="M-97.2,417.2c0,0.9,0.5,1.4,1.3,1.4c0.6,0,0.9-0.2,1.2-0.5
		l0.6,0.6c-0.5,0.5-1,0.8-1.9,0.8c-1.2,0-2.2-0.7-2.2-2.6c0-1.6,0.8-2.5,2.1-2.5c1.3,0,2.1,1,2.1,2.4v0.4H-97.2z M-95.1,415.9
		L-95.1,415.9c-0.2-0.4-0.5-0.6-1-0.6c-0.5,0-0.8,0.3-1,0.6c-0.1,0.2-0.1,0.4-0.1,0.7h2.2C-94.9,416.2-95,416.1-95.1,415.9"/>
	<polygon fill-rule="evenodd" clip-rule="evenodd" fill="#FFFFFF" points="-142.9,423.1 -142.9,424.6 -139.7,424.6 -139.7,426.4 
		-142.9,426.4 -142.9,429.7 -144.9,429.7 -144.9,421.2 -139.2,421.2 -139.2,423.1 	"/>
	<rect x="-138.4" y="421.2" fill-rule="evenodd" clip-rule="evenodd" fill="#FFFFFF" width="2.1" height="8.4"/>
	<polygon fill-rule="evenodd" clip-rule="evenodd" fill="#FFFFFF" points="-130.3,429.7 -133,425.4 -133,429.7 -135.1,429.7 
		-135.1,421.2 -133.3,421.2 -130.6,425.5 -130.6,421.2 -128.5,421.2 -128.5,429.7 	"/>
	<path fill-rule="evenodd" clip-rule="evenodd" fill="#FFFFFF" d="M-122.6,429.7l-0.4-1.3h-2.6l-0.4,1.3h-2.2l3.1-8.4h1.6l3.1,8.4
		H-122.6z M-124.3,424.4L-124.3,424.4l-0.8,2.3h1.5L-124.3,424.4z"/>
	<polygon fill-rule="evenodd" clip-rule="evenodd" fill="#FFFFFF" points="-115.3,429.7 -118,425.4 -118,429.7 -120.1,429.7 
		-120.1,421.2 -118.3,421.2 -115.6,425.5 -115.6,421.2 -113.5,421.2 -113.5,429.7 	"/>
	<polygon fill-rule="evenodd" clip-rule="evenodd" fill="#FFFFFF" points="-112.8,429.7 -112.8,428 -109.6,423.1 -112.7,423.1 
		-112.7,421.2 -107.1,421.2 -107.1,422.8 -110.3,427.8 -107.3,427.8 -108.1,429.7 	"/>
	<path fill-rule="evenodd" clip-rule="evenodd" fill="#FFFFFF" d="M-101.7,429.7l-0.4-1.3h-2.6l-0.4,1.3h-2.2l3.1-8.4h1.6l3.1,8.4
		H-101.7z M-103.3,424.4L-103.3,424.4l-0.8,2.3h1.5L-103.3,424.4z"/>
	<path fill-rule="evenodd" clip-rule="evenodd" fill="#FFFFFF" d="M-98.7,427.4c0.4,0.3,1.4,0.5,1.9,0.5c0.8,0,1.2-0.3,1.2-0.8
		c0-0.2,0-0.4-0.2-0.5c-0.1-0.1-0.3-0.2-0.6-0.2l-1-0.1c-0.7-0.1-1.3-0.4-1.7-0.7c-0.4-0.4-0.6-1-0.6-1.7c0-1.5,1.2-2.7,3.1-2.7
		c0.8,0,1.7,0.2,2.3,0.5l-0.4,1.8c-0.6-0.5-1.5-0.5-1.9-0.5c-0.7,0-1,0.4-1,0.8c0,0.1,0,0.3,0.2,0.4c0.1,0.1,0.3,0.2,0.6,0.2l1,0.1
		c0.8,0.1,1.3,0.3,1.7,0.7c0.4,0.4,0.6,1.1,0.6,1.8c0,1.7-1.5,2.7-3.3,2.7c-1,0-1.9-0.2-2.6-0.6"/>
	<rect x="-149.8" y="412.5" fill="#FFFFFF" width="1" height="5.7"/>
	<rect x="-149.8" y="418.2" fill="#FFFFFF" width="1" height="5.7"/>
	<rect x="-149.8" y="423.9" fill="#FFFFFF" width="1" height="5.7"/>
</g>
<g display="none" opacity="0.66">
	<polygon display="inline" fill="#D13100" points="-151.2,408.1 -151.1,409.3 -151.9,410.4 -152.6,410.7 -153.1,411.4 -154.4,415.2 
		-154.3,419.1 -152.3,420.1 -152.2,420.5 -152.3,420.8 -152,421.3 -150.9,421.3 -150.7,422.5 -151.3,425 -151.6,425.5 -151.4,433.9 
		-144.7,433.9 -144.6,430.9 -142.6,430.8 -138.8,424.9 -138.5,424.9 -138.2,424.5 -138.4,424.1 -138.4,423.4 -138.7,422.8 
		-138.6,422.3 -138.7,421.8 -139,421.3 -139.9,420.5 -140,419.8 -139.8,419.5 -140,418.8 -140,418.5 -140,418.2 -139.6,417.9 
		-138.5,413.8 -139.7,412.2 -139.8,411.9 -141.3,411.8 -141.5,411.2 -141.4,410.5 -142.2,409.5 -142.2,409.2 -145,408.7 -145,408.4 
		-146.2,408.4 -146.4,408.1 -146.9,408.3 -147.2,408 -148.5,407.7 	"/>
	<path display="inline" fill="#D13100" d="M-129.4,428.6v0.3c0,0,0,0.1,0,0.1c0,0,0.1,0,0.1,0h1.7c0,0,0.1,0,0.1,0c0,0,0,0.1,0,0.1
		v0.8c0,0,0,0.1,0,0.1c0,0-0.1,0-0.1,0h-1.7c0,0-0.1,0-0.1,0c0,0,0,0.1,0,0.1v0.2c0,0,0,0.1,0,0.1c0,0,0.1,0,0.1,0h1.9
		c0,0,0.1,0,0.1,0c0,0,0,0.1,0,0.1v0.8c0,0,0,0.1,0,0.1c0,0-0.1,0-0.1,0h-3.1c0,0-0.1,0-0.1,0c0,0,0-0.1,0-0.1v-4.2c0,0,0-0.1,0-0.1
		c0,0,0.1,0,0.1,0h3.1c0,0,0.1,0,0.1,0c0,0,0,0.1,0,0.1v0.8c0,0,0,0.1,0,0.1c0,0-0.1,0-0.1,0h-1.9c0,0-0.1,0-0.1,0
		C-129.4,428.6-129.4,428.6-129.4,428.6"/>
	<path display="inline" fill="#D13100" d="M-122.7,427.5v4.2c0,0,0,0.1,0,0.1c0,0-0.1,0-0.1,0h-0.9c0,0-0.1,0-0.1,0
		c0,0-0.1-0.1-0.1-0.1l-1.6-2.2c0,0-0.1,0-0.1,0c0,0,0,0,0,0.1v2.2c0,0,0,0.1,0,0.1c0,0-0.1,0-0.1,0h-0.9c0,0-0.1,0-0.1,0
		c0,0,0-0.1,0-0.1v-4.2c0,0,0-0.1,0-0.1c0,0,0.1,0,0.1,0h0.9c0,0,0.1,0,0.1,0c0,0,0.1,0.1,0.1,0.1l1.6,2.2c0,0,0.1,0,0.1,0
		c0,0,0,0,0-0.1v-2.2c0,0,0-0.1,0-0.1c0,0,0.1,0,0.1,0h0.9c0,0,0.1,0,0.1,0C-122.7,427.4-122.7,427.5-122.7,427.5"/>
	<path display="inline" fill="#D13100" d="M-119,428.5h-0.9c0,0-0.1,0-0.1,0c0,0,0,0.1,0,0.1v3c0,0,0,0.1,0,0.1c0,0-0.1,0-0.1,0
		h-0.9c0,0-0.1,0-0.1,0c0,0,0-0.1,0-0.1v-3c0,0,0-0.1,0-0.1c0,0-0.1,0-0.1,0h-0.9c0,0-0.1,0-0.1,0c0,0,0-0.1,0-0.1v-0.8
		c0,0,0-0.1,0-0.1c0,0,0.1,0,0.1,0h3.2c0,0,0.1,0,0.1,0c0,0,0,0.1,0,0.1v0.8c0,0,0,0.1,0,0.1C-118.9,428.5-118.9,428.5-119,428.5"/>
	<path display="inline" fill="#D13100" d="M-117.3,431.8h-0.9c0,0-0.1,0-0.1,0c0,0,0-0.1,0-0.1v-4.2c0,0,0-0.1,0-0.1
		c0,0,0.1,0,0.1,0h1.9c0.2,0,0.5,0,0.7,0.1c0.2,0.1,0.4,0.2,0.5,0.3c0.1,0.1,0.2,0.3,0.3,0.5c0.1,0.2,0.1,0.4,0.1,0.6
		c0,0.1,0,0.3,0,0.4c0,0.1-0.1,0.2-0.1,0.4c-0.1,0.1-0.1,0.2-0.2,0.3c-0.1,0.1-0.2,0.2-0.3,0.2c0,0-0.1,0.1-0.1,0.1c0,0,0,0.1,0,0.1
		c0.2,0.2,0.3,0.4,0.5,0.6c0.2,0.2,0.3,0.4,0.5,0.6c0,0,0,0.1,0,0.1c0,0,0,0.1-0.1,0.1h-1.1c0,0-0.1,0-0.1,0c0,0-0.1-0.1-0.1-0.1
		c-0.1-0.2-0.3-0.3-0.4-0.5c-0.1-0.2-0.3-0.4-0.4-0.5c0,0-0.1-0.1-0.1-0.1c0,0-0.1,0-0.1,0h-0.1c0,0-0.1,0-0.1,0c0,0,0,0.1,0,0.1v1
		c0,0,0,0.1,0,0.1C-117.2,431.8-117.3,431.8-117.3,431.8 M-117,429.4h0.6c0,0,0.1,0,0.2,0c0.1,0,0.1,0,0.1-0.1c0,0,0.1-0.1,0.1-0.1
		c0-0.1,0-0.1,0-0.2c0,0,0-0.1,0-0.1c0-0.1,0-0.1-0.1-0.2c0-0.1-0.1-0.1-0.1-0.1c-0.1,0-0.1-0.1-0.2-0.1h-0.6c0,0-0.1,0-0.1,0
		c0,0,0,0.1,0,0.1v0.6c0,0,0,0.1,0,0.1C-117.1,429.4-117.1,429.4-117,429.4"/>
	<path display="inline" fill="#D13100" d="M-112.9,428.6v0.3c0,0,0,0.1,0,0.1c0,0,0.1,0,0.1,0h1.7c0,0,0.1,0,0.1,0c0,0,0,0.1,0,0.1
		v0.8c0,0,0,0.1,0,0.1c0,0-0.1,0-0.1,0h-1.7c0,0-0.1,0-0.1,0c0,0,0,0.1,0,0.1v0.2c0,0,0,0.1,0,0.1c0,0,0.1,0,0.1,0h1.9
		c0,0,0.1,0,0.1,0c0,0,0,0.1,0,0.1v0.8c0,0,0,0.1,0,0.1c0,0-0.1,0-0.1,0h-3.1c0,0-0.1,0-0.1,0c0,0,0-0.1,0-0.1v-4.2c0,0,0-0.1,0-0.1
		c0,0,0.1,0,0.1,0h3.1c0,0,0.1,0,0.1,0c0,0,0,0.1,0,0.1v0.8c0,0,0,0.1,0,0.1c0,0-0.1,0-0.1,0h-1.9c0,0-0.1,0-0.1,0
		C-112.9,428.6-112.9,428.6-112.9,428.6"/>
	<path display="inline" fill="#D13100" d="M-105.5,428.5h-0.9c0,0-0.1,0-0.1,0c0,0,0,0.1,0,0.1v3c0,0,0,0.1,0,0.1c0,0-0.1,0-0.1,0
		h-0.9c0,0-0.1,0-0.1,0c0,0,0-0.1,0-0.1v-3c0,0,0-0.1,0-0.1c0,0-0.1,0-0.1,0h-0.9c0,0-0.1,0-0.1,0c0,0,0-0.1,0-0.1v-0.8
		c0,0,0-0.1,0-0.1c0,0,0.1,0,0.1,0h3.2c0,0,0.1,0,0.1,0c0,0,0,0.1,0,0.1v0.8c0,0,0,0.1,0,0.1C-105.4,428.5-105.4,428.5-105.5,428.5"
		/>
	<path display="inline" fill="#D13100" d="M-105.5,429.6c0-0.3,0.1-0.6,0.2-0.9c0.1-0.3,0.3-0.5,0.5-0.7c0.2-0.2,0.4-0.4,0.7-0.5
		c0.3-0.1,0.6-0.2,0.9-0.2c0.3,0,0.6,0.1,0.9,0.2c0.3,0.1,0.5,0.3,0.7,0.5c0.2,0.2,0.4,0.5,0.5,0.7c0.1,0.3,0.2,0.6,0.2,0.9
		s-0.1,0.6-0.2,0.9c-0.1,0.3-0.3,0.5-0.5,0.7c-0.2,0.2-0.5,0.4-0.7,0.5s-0.6,0.2-0.9,0.2c-0.3,0-0.6-0.1-0.9-0.2
		c-0.3-0.1-0.5-0.3-0.7-0.5c-0.2-0.2-0.4-0.5-0.5-0.7C-105.4,430.2-105.5,429.9-105.5,429.6 M-104.3,429.6c0,0.2,0,0.3,0.1,0.4
		c0.1,0.1,0.1,0.3,0.2,0.4c0.1,0.1,0.2,0.2,0.4,0.3c0.1,0.1,0.3,0.1,0.4,0.1c0.1,0,0.3,0,0.4-0.1c0.1-0.1,0.3-0.1,0.4-0.3
		c0.1-0.1,0.2-0.2,0.2-0.4c0.1-0.1,0.1-0.3,0.1-0.4c0-0.2,0-0.3-0.1-0.4c-0.1-0.1-0.1-0.3-0.2-0.4c-0.1-0.1-0.2-0.2-0.4-0.2
		c-0.1-0.1-0.3-0.1-0.4-0.1c-0.2,0-0.3,0-0.4,0.1c-0.1,0.1-0.3,0.1-0.4,0.2c-0.1,0.1-0.2,0.2-0.2,0.4
		C-104.3,429.3-104.3,429.4-104.3,429.6"/>
	<path display="inline" fill="#D13100" d="M-100.7,431.7v-4.2c0,0,0-0.1,0-0.1c0,0,0.1,0,0.1,0h1.7c0.6,0,1.2,0.2,1.6,0.6
		c0.2,0.2,0.4,0.4,0.5,0.7c0.1,0.3,0.2,0.6,0.2,0.9s-0.1,0.7-0.2,0.9c-0.1,0.3-0.3,0.5-0.5,0.7c-0.2,0.2-0.4,0.3-0.7,0.4
		c-0.3,0.1-0.5,0.1-0.9,0.1h-1.7c0,0-0.1,0-0.1,0C-100.6,431.8-100.7,431.7-100.7,431.7 M-99.3,430.7h0.5c0.1,0,0.2,0,0.4,0
		c0.1,0,0.2-0.1,0.3-0.2c0.1-0.1,0.2-0.2,0.2-0.3c0.1-0.1,0.1-0.3,0.1-0.6c0-0.2,0-0.4-0.1-0.6c-0.1-0.1-0.1-0.3-0.2-0.3
		c-0.1-0.1-0.2-0.1-0.3-0.2c-0.1,0-0.2,0-0.4,0h-0.5c0,0-0.1,0-0.1,0c0,0,0,0.1,0,0.1v1.9c0,0,0,0.1,0,0.1
		C-99.4,430.7-99.3,430.7-99.3,430.7"/>
	<path display="inline" fill="#D13100" d="M-96.5,429.6c0-0.3,0.1-0.6,0.2-0.9c0.1-0.3,0.3-0.5,0.5-0.7c0.2-0.2,0.4-0.4,0.7-0.5
		c0.3-0.1,0.6-0.2,0.9-0.2c0.3,0,0.6,0.1,0.9,0.2c0.3,0.1,0.5,0.3,0.7,0.5c0.2,0.2,0.4,0.5,0.5,0.7c0.1,0.3,0.2,0.6,0.2,0.9
		s-0.1,0.6-0.2,0.9c-0.1,0.3-0.3,0.5-0.5,0.7c-0.2,0.2-0.5,0.4-0.7,0.5c-0.3,0.1-0.6,0.2-0.9,0.2c-0.3,0-0.6-0.1-0.9-0.2
		c-0.3-0.1-0.5-0.3-0.7-0.5c-0.2-0.2-0.4-0.5-0.5-0.7C-96.4,430.2-96.5,429.9-96.5,429.6 M-95.2,429.6c0,0.2,0,0.3,0.1,0.4
		c0.1,0.1,0.1,0.3,0.2,0.4c0.1,0.1,0.2,0.2,0.4,0.3c0.1,0.1,0.3,0.1,0.4,0.1c0.1,0,0.3,0,0.4-0.1c0.1-0.1,0.3-0.1,0.4-0.3
		c0.1-0.1,0.2-0.2,0.2-0.4c0.1-0.1,0.1-0.3,0.1-0.4c0-0.2,0-0.3-0.1-0.4c-0.1-0.1-0.1-0.3-0.2-0.4c-0.1-0.1-0.2-0.2-0.4-0.2
		c-0.1-0.1-0.3-0.1-0.4-0.1c-0.2,0-0.3,0-0.4,0.1c-0.1,0.1-0.3,0.1-0.4,0.2c-0.1,0.1-0.2,0.2-0.2,0.4
		C-95.2,429.3-95.2,429.4-95.2,429.6"/>
	<path display="inline" fill="#D13100" d="M-91.1,430.3c0.2,0.1,0.4,0.3,0.7,0.3c0.2,0.1,0.4,0.1,0.6,0.1c0.2,0,0.3,0,0.4-0.1
		c0.1-0.1,0.1-0.1,0.1-0.2c0-0.1,0-0.1-0.1-0.1c0,0-0.1-0.1-0.2-0.1c-0.1,0-0.1,0-0.2,0c-0.1,0-0.2,0-0.3,0c-0.1,0-0.2,0-0.3-0.1
		c-0.1,0-0.2-0.1-0.4-0.1c-0.1,0-0.3-0.1-0.4-0.2c-0.1-0.1-0.2-0.1-0.3-0.2c-0.1-0.1-0.2-0.2-0.2-0.4c-0.1-0.1-0.1-0.3-0.1-0.5
		c0-0.3,0.1-0.5,0.2-0.7c0.1-0.2,0.2-0.3,0.4-0.4c0.2-0.1,0.4-0.2,0.6-0.2c0.2,0,0.4-0.1,0.6-0.1c0.3,0,0.6,0,0.9,0.1
		c0.3,0.1,0.5,0.2,0.8,0.4c0,0,0.1,0.1,0.1,0.1c0,0,0,0.1,0,0.1l-0.5,0.7c0,0-0.1,0.1-0.1,0.1c0,0-0.1,0-0.1,0
		c-0.2-0.1-0.4-0.2-0.6-0.3c-0.2-0.1-0.3-0.1-0.5-0.1c0,0-0.1,0-0.2,0c-0.1,0-0.1,0-0.2,0c-0.1,0-0.1,0-0.1,0.1c0,0-0.1,0.1-0.1,0.1
		c0,0.1,0,0.1,0.1,0.2c0.1,0,0.2,0.1,0.3,0.1c0.1,0,0.2,0.1,0.3,0.1c0.1,0,0.2,0,0.2,0c0.1,0,0.3,0.1,0.5,0.1
		c0.2,0.1,0.3,0.1,0.5,0.2c0.2,0.1,0.3,0.2,0.4,0.4c0.1,0.2,0.2,0.4,0.2,0.6c0,0.2,0,0.5-0.1,0.6c-0.1,0.2-0.2,0.3-0.4,0.4
		c-0.2,0.1-0.3,0.2-0.5,0.3c-0.2,0.1-0.4,0.1-0.7,0.1c-0.2,0-0.4,0-0.6-0.1c-0.2,0-0.4-0.1-0.5-0.1c-0.2-0.1-0.3-0.1-0.4-0.2
		c-0.1-0.1-0.3-0.2-0.4-0.3c0,0-0.1-0.1-0.1-0.1c0,0,0-0.1,0-0.1l0.5-0.7c0,0,0.1-0.1,0.1-0.1C-91.2,430.3-91.1,430.3-91.1,430.3"/>
	<path display="inline" fill="#D13100" d="M-128.7,411.7c0.5,0,0.9,0.3,1,0.9l0,0.2h1l0-0.3c-0.2-1-1-1.7-2-1.7
		c-0.6,0-1.1,0.2-1.4,0.6c-0.5,0.5-0.5,1.1-0.5,2.2c0,1.1,0,1.7,0.5,2.2c0.4,0.4,0.9,0.6,1.4,0.6c0.6,0,1.1-0.2,1.5-0.7
		c0.3-0.4,0.5-0.8,0.5-1.5v-1h-2.2v0.9h1.2v0.2c0,0.3-0.1,0.6-0.2,0.8c-0.2,0.2-0.5,0.4-0.8,0.4c-0.3,0-0.5-0.1-0.7-0.3
		c-0.2-0.2-0.3-0.5-0.3-1.6c0-1.1,0-1.3,0.3-1.6C-129.2,411.8-128.9,411.7-128.7,411.7"/>
	<path display="inline" fill="#D13100" d="M-124.2,410.8c-0.6,0-1.1,0.2-1.4,0.6c-0.5,0.5-0.5,1.1-0.5,2.2s0,1.7,0.5,2.2
		c0.4,0.4,0.9,0.6,1.4,0.6c0.6,0,1.1-0.2,1.4-0.6c0.5-0.5,0.5-1.1,0.5-2.2s0-1.7-0.5-2.2C-123.2,411-123.7,410.8-124.2,410.8
		 M-123.2,413.6c0,1.1,0,1.3-0.3,1.6c-0.4,0.4-1.1,0.4-1.4,0c-0.2-0.3-0.3-0.5-0.3-1.6c0-1.1,0-1.3,0.3-1.6c0.2-0.2,0.4-0.3,0.7-0.3
		s0.5,0.1,0.7,0.3C-123.3,412.3-123.2,412.5-123.2,413.6"/>
	<path display="inline" fill="#D13100" d="M-118.5,413.5c0.3-0.3,0.5-0.7,0.5-1.1c0-0.9-0.7-1.6-1.7-1.6h-2.1v5.5h2.2
		c1.1,0,1.7-0.6,1.7-1.6C-117.9,414.2-118.1,413.8-118.5,413.5 M-119.7,413.1h-1.1v-1.3h1.1c0.3,0,0.8,0.1,0.8,0.6
		C-118.9,413-119.4,413.1-119.7,413.1 M-119.6,414c0.5,0,0.8,0.3,0.8,0.7c0,0.4-0.3,0.7-0.8,0.7h-1.1V414H-119.6z"/>
	<rect x="-117.3" y="410.8" display="inline" fill="#D13100" width="1" height="5.5"/>
	<polygon display="inline" fill="#D13100" points="-115.7,416.3 -112.1,416.3 -112.1,415.4 -114.7,415.4 -114.7,414 -112.5,414 
		-112.5,413.1 -114.7,413.1 -114.7,411.8 -112.1,411.8 -112.1,410.8 -115.7,410.8 	"/>
	<path display="inline" fill="#D13100" d="M-107.8,412.5c0-1-0.7-1.6-1.7-1.6h-2.2v5.5h1v-2.2h0.8l1.1,2.2h1.1l-1.2-2.4
		C-108.2,413.7-107.8,413.2-107.8,412.5 M-108.8,412.5c0,0.6-0.4,0.7-0.8,0.7h-1.1v-1.4h1.1C-109.3,411.8-108.8,411.9-108.8,412.5"
		/>
	<polygon display="inline" fill="#D13100" points="-104.1,414.3 -106.4,410.8 -107.2,410.8 -107.2,416.3 -106.3,416.3 -106.3,412.8 
		-103.9,416.3 -103.1,416.3 -103.1,410.8 -104.1,410.8 	"/>
	<path display="inline" fill="#D13100" d="M-100.5,410.8c-0.6,0-1.1,0.2-1.4,0.6c-0.5,0.5-0.5,1.1-0.5,2.2s0,1.7,0.5,2.2
		c0.4,0.4,0.9,0.6,1.4,0.6c0.6,0,1.1-0.2,1.4-0.6c0.5-0.5,0.5-1.1,0.5-2.2s0-1.7-0.5-2.2C-99.4,411-99.9,410.8-100.5,410.8
		 M-99.5,413.6c0,1.1,0,1.3-0.3,1.6c-0.4,0.4-1.1,0.4-1.4,0c-0.2-0.2-0.3-0.5-0.3-1.6c0-1.1,0-1.3,0.3-1.6c0.2-0.2,0.4-0.3,0.7-0.3
		c0.3,0,0.5,0.1,0.7,0.3C-99.5,412.3-99.5,412.5-99.5,413.6"/>
	<path display="inline" fill="#D13100" d="M-92.9,411.4c-0.3-0.3-0.8-0.5-1.4-0.5h-2v5.5h2c0.6,0,1.1-0.2,1.4-0.5
		c0.6-0.6,0.6-1.5,0.6-2.2v-0.1v-0.1C-92.3,412.7-92.3,411.9-92.9,411.4 M-93.3,413.5v0.1c0,0.5,0,1.2-0.3,1.5
		c-0.2,0.2-0.5,0.3-0.8,0.3h-0.9v-3.6h0.9c0.4,0,0.6,0.1,0.8,0.3C-93.3,412.3-93.3,412.9-93.3,413.5"/>
	<polygon display="inline" fill="#D13100" points="-91.7,416.3 -88.1,416.3 -88.1,415.4 -90.7,415.4 -90.7,414 -88.5,414 
		-88.5,413.1 -90.7,413.1 -90.7,411.8 -88.1,411.8 -88.1,410.8 -91.7,410.8 	"/>
	<path display="inline" fill="#D13100" d="M-128,425c-0.8,0-1.4-0.3-1.9-0.8c-0.3-0.3-0.5-0.7-0.6-1.1c-0.1-0.4-0.1-1-0.1-1.8
		c0-0.8,0-1.4,0.1-1.8c0.1-0.4,0.3-0.8,0.6-1.1c0.5-0.5,1.2-0.8,1.9-0.8c1.4,0,2.4,0.8,2.6,2.2h-1.4c-0.1-0.6-0.5-1-1.2-1
		c-0.4,0-0.7,0.1-0.9,0.4c-0.3,0.3-0.3,0.6-0.3,2c0,1.4,0.1,1.7,0.3,2c0.2,0.2,0.5,0.4,0.9,0.4c0.7,0,1-0.4,1.2-1h1.4
		C-125.7,424.2-126.7,425-128,425"/>
	<path display="inline" fill="#D13100" d="M-120.5,424.3c-0.5,0.5-1.1,0.8-1.9,0.8c-0.8,0-1.4-0.3-1.9-0.8c-0.7-0.7-0.7-1.6-0.7-2.8
		c0-1.2,0-2.1,0.7-2.8c0.5-0.5,1.1-0.8,1.9-0.8c0.8,0,1.4,0.3,1.9,0.8c0.7,0.7,0.7,1.6,0.7,2.8
		C-119.8,422.7-119.8,423.5-120.5,424.3 M-121.5,419.4c-0.2-0.2-0.5-0.4-0.9-0.4c-0.4,0-0.7,0.1-0.9,0.4c-0.3,0.3-0.3,0.6-0.3,2
		c0,1.4,0.1,1.7,0.3,2c0.2,0.2,0.5,0.4,0.9,0.4c0.4,0,0.7-0.1,0.9-0.4c0.3-0.3,0.3-0.6,0.3-2C-121.2,420.1-121.3,419.7-121.5,419.4"
		/>
	<path display="inline" fill="#D13100" d="M-114.9,425l-1.4-2.8h-1v2.8h-1.4v-7.1h2.8c1.4,0,2.3,1,2.3,2.2c0,1-0.6,1.6-1.3,1.9
		l1.6,3.1H-114.9z M-115.9,419.1h-1.3v1.9h1.3c0.6,0,1-0.4,1-0.9C-114.9,419.5-115.3,419.1-115.9,419.1"/>
	<path display="inline" fill="#D13100" d="M-107.9,424.3c-0.5,0.5-1.1,0.7-1.9,0.7h-2.6v-7.1h2.6c0.7,0,1.4,0.2,1.9,0.7
		c0.8,0.8,0.7,1.8,0.7,2.8C-107.2,422.5-107.1,423.5-107.9,424.3 M-108.9,419.6c-0.2-0.3-0.6-0.4-1-0.4h-1v4.6h1
		c0.5,0,0.8-0.2,1-0.4c0.3-0.3,0.3-0.8,0.3-1.9C-108.6,420.3-108.6,419.9-108.9,419.6"/>
	<path display="inline" fill="#D13100" d="M-101.8,424.3c-0.5,0.5-1.1,0.8-1.9,0.8c-0.8,0-1.4-0.3-1.9-0.8c-0.7-0.7-0.7-1.6-0.7-2.8
		c0-1.2,0-2.1,0.7-2.8c0.5-0.5,1.1-0.8,1.9-0.8c0.8,0,1.4,0.3,1.9,0.8c0.7,0.7,0.7,1.6,0.7,2.8C-101,422.7-101,423.5-101.8,424.3
		 M-102.8,419.4c-0.2-0.2-0.5-0.4-0.9-0.4c-0.4,0-0.7,0.1-0.9,0.4c-0.3,0.3-0.3,0.6-0.3,2c0,1.4,0.1,1.7,0.3,2
		c0.2,0.2,0.5,0.4,0.9,0.4c0.4,0,0.7-0.1,0.9-0.4c0.3-0.3,0.3-0.6,0.3-2C-102.4,420.1-102.5,419.7-102.8,419.4"/>
	<path display="inline" fill="#D13100" d="M-96.9,425h-3v-7.1h2.8c1.4,0,2.2,0.8,2.2,2c0,0.8-0.5,1.3-0.9,1.5c0.4,0.2,1,0.6,1,1.6
		C-94.7,424.3-95.6,425-96.9,425 M-97.1,419.1h-1.4v1.6h1.4c0.6,0,0.9-0.3,0.9-0.8C-96.2,419.4-96.6,419.1-97.1,419.1 M-97.1,422
		h-1.4v1.7h1.4c0.6,0,0.9-0.4,0.9-0.9S-96.4,422-97.1,422"/>
	<path display="inline" fill="#D13100" d="M-89.5,425l-0.4-1.3h-2.5l-0.4,1.3h-1.4l2.6-7.1h1.1l2.6,7.1H-89.5z M-91.2,420l-0.9,2.6
		h1.8L-91.2,420z"/>
	<polygon display="inline" fill="#D13100" points="-121.8,417.5 -123.3,417.5 -123,416.8 -121.5,416.8 	"/>
	<rect x="-135" y="407.7" display="inline" fill="#D13100" width="0.9" height="8.7"/>
	<rect x="-135" y="416.4" display="inline" fill="#D13100" width="0.9" height="8.7"/>
	<rect x="-135" y="425.2" display="inline" fill="#D13100" width="0.9" height="8.7"/>
</g>
</svg>
