<?xml version="1.0" encoding="utf-8"?>
<!-- Generator: Adobe Illustrator 19.0.0, SVG Export Plug-In . SVG Version: 6.00 Build 0)  -->
<svg version="1.1" id="Capa_1" xmlns="http://www.w3.org/2000/svg" xmlns:xlink="http://www.w3.org/1999/xlink" x="0px" y="0px"
	 viewBox="0 0 90 38" enable-background="new 0 0 90 38" xml:space="preserve">
<polygon id="XMLID_49_" opacity="0.66" fill="#FFFFFF" points="5.4,2.3 5.6,3.9 4.5,5.2 3.6,5.7 2.9,6.5 1.2,11.5 1.4,16.6 
	3.9,17.9 4.1,18.5 4,18.8 4.4,19.5 5.8,19.5 6.2,21.2 5.3,24.3 4.9,25 5.2,36.1 14,36 14.1,32.1 16.7,32 21.7,24.3 22.1,24.2 
	22.4,23.7 22.2,23.2 22.3,22.3 21.9,21.5 22,20.9 21.8,20.3 21.4,19.5 20.3,18.4 20.1,17.6 20.3,17.2 20.1,16.2 20.2,15.8 
	20.1,15.5 20.6,15.1 22.1,9.7 20.5,7.7 20.4,7.2 18.4,7.1 18.1,6.3 18.2,5.4 17.3,4.1 17.2,3.7 13.6,3 13.5,2.6 12,2.6 11.8,2.3 
	11.1,2.5 10.7,2.1 9,1.7 "/>
<path id="XMLID_48_" opacity="0.66" fill="#FFFFFF" d="M33.9,29.1v0.3c0,0.1,0,0.1,0.1,0.1c0,0,0.1,0.1,0.1,0.1h2.2
	c0.1,0,0.1,0,0.1,0.1c0,0,0.1,0.1,0.1,0.1v1.1c0,0.1,0,0.1-0.1,0.1c0,0-0.1,0.1-0.1,0.1h-2.2c-0.1,0-0.1,0-0.1,0.1
	c0,0-0.1,0.1-0.1,0.1v0.3c0,0.1,0,0.1,0.1,0.1c0,0,0.1,0.1,0.1,0.1h2.5c0.1,0,0.1,0,0.1,0.1c0,0,0.1,0.1,0.1,0.1v1.1
	c0,0.1,0,0.1-0.1,0.1c0,0-0.1,0.1-0.1,0.1h-4.1c-0.1,0-0.1,0-0.1-0.1c0,0-0.1-0.1-0.1-0.1v-5.5c0-0.1,0-0.1,0.1-0.1
	c0,0,0.1-0.1,0.1-0.1h4.1c0.1,0,0.1,0,0.1,0.1c0,0,0.1,0.1,0.1,0.1v1.1c0,0.1,0,0.1-0.1,0.1c0,0-0.1,0.1-0.1,0.1h-2.5
	c-0.1,0-0.1,0-0.1,0.1C33.9,29,33.9,29.1,33.9,29.1"/>
<path id="XMLID_47_" opacity="0.66" fill="#FFFFFF" d="M42.7,27.7v5.5c0,0.1,0,0.1-0.1,0.1c0,0-0.1,0.1-0.1,0.1h-1.2
	c-0.1,0-0.1,0-0.2,0c-0.1,0-0.1-0.1-0.1-0.1L39,30.2c0,0-0.1-0.1-0.1-0.1c0,0-0.1,0-0.1,0.1v2.9c0,0.1,0,0.1-0.1,0.1
	c0,0-0.1,0.1-0.1,0.1h-1.2c-0.1,0-0.1,0-0.1-0.1c0,0-0.1-0.1-0.1-0.1v-5.5c0-0.1,0-0.1,0.1-0.1c0,0,0.1-0.1,0.1-0.1h1.2
	c0.1,0,0.1,0,0.2,0c0.1,0,0.1,0.1,0.1,0.1l2.1,2.9c0,0,0.1,0.1,0.1,0.1c0,0,0.1,0,0.1-0.1v-2.9c0-0.1,0-0.1,0.1-0.1
	c0,0,0.1-0.1,0.1-0.1h1.2c0.1,0,0.1,0,0.1,0.1C42.7,27.6,42.7,27.6,42.7,27.7"/>
<path id="XMLID_46_" opacity="0.66" fill="#FFFFFF" d="M47.6,28.9h-1.1c-0.1,0-0.1,0-0.1,0.1c0,0-0.1,0.1-0.1,0.1v4
	c0,0.1,0,0.1-0.1,0.1c0,0-0.1,0.1-0.1,0.1h-1.2c-0.1,0-0.1,0-0.1-0.1c0,0-0.1-0.1-0.1-0.1v-4c0-0.1,0-0.1-0.1-0.1
	c0,0-0.1-0.1-0.1-0.1h-1.1c-0.1,0-0.1,0-0.1-0.1c0,0-0.1-0.1-0.1-0.1v-1.1c0-0.1,0-0.1,0.1-0.1c0,0,0.1-0.1,0.1-0.1h4.2
	c0.1,0,0.1,0,0.1,0.1c0,0,0.1,0.1,0.1,0.1v1.1c0,0.1,0,0.1-0.1,0.1C47.7,28.9,47.7,28.9,47.6,28.9"/>
<path id="XMLID_108_" opacity="0.66" fill="#FFFFFF" d="M49.8,33.3h-1.2c-0.1,0-0.1,0-0.1-0.1c0,0-0.1-0.1-0.1-0.1v-5.5
	c0-0.1,0-0.1,0.1-0.1c0,0,0.1-0.1,0.1-0.1h2.5c0.3,0,0.6,0.1,0.9,0.2c0.3,0.1,0.5,0.2,0.7,0.4c0.2,0.2,0.3,0.4,0.4,0.7
	c0.1,0.3,0.2,0.5,0.2,0.8c0,0.2,0,0.3-0.1,0.5c0,0.2-0.1,0.3-0.2,0.5c-0.1,0.1-0.2,0.3-0.3,0.4c-0.1,0.1-0.2,0.2-0.3,0.3
	c0,0-0.1,0.1-0.1,0.1c0,0,0,0.1,0,0.1c0.2,0.3,0.4,0.5,0.6,0.8c0.2,0.3,0.4,0.5,0.6,0.8c0,0,0,0.1,0,0.1c0,0.1-0.1,0.1-0.1,0.1h-1.5
	c-0.1,0-0.1,0-0.2,0c-0.1,0-0.1-0.1-0.1-0.1c-0.2-0.2-0.3-0.4-0.5-0.7c-0.2-0.2-0.3-0.5-0.5-0.7c0,0-0.1-0.1-0.1-0.1
	c-0.1,0-0.1,0-0.2,0h-0.2c-0.1,0-0.1,0-0.1,0.1c0,0-0.1,0.1-0.1,0.1v1.3c0,0.1,0,0.1-0.1,0.1C49.9,33.3,49.8,33.3,49.8,33.3
	 M50.1,30.2H51c0.1,0,0.1,0,0.2,0c0.1,0,0.1-0.1,0.2-0.1c0.1,0,0.1-0.1,0.1-0.2c0-0.1,0.1-0.2,0.1-0.3c0-0.1,0-0.1,0-0.2
	c0-0.1,0-0.1-0.1-0.2c0-0.1-0.1-0.1-0.2-0.2c-0.1,0-0.2-0.1-0.3-0.1h-0.8c-0.1,0-0.1,0-0.1,0.1c0,0-0.1,0.1-0.1,0.1V30
	c0,0.1,0,0.1,0.1,0.1C50.1,30.1,50.1,30.2,50.1,30.2"/>
<path id="XMLID_43_" opacity="0.66" fill="#FFFFFF" d="M55.5,29.1v0.3c0,0.1,0,0.1,0.1,0.1c0,0,0.1,0.1,0.1,0.1h2.2
	c0.1,0,0.1,0,0.1,0.1c0,0,0.1,0.1,0.1,0.1v1.1c0,0.1,0,0.1-0.1,0.1c0,0-0.1,0.1-0.1,0.1h-2.2c-0.1,0-0.1,0-0.1,0.1
	c0,0-0.1,0.1-0.1,0.1v0.3c0,0.1,0,0.1,0.1,0.1c0,0,0.1,0.1,0.1,0.1h2.5c0.1,0,0.1,0,0.1,0.1c0,0,0.1,0.1,0.1,0.1v1.1
	c0,0.1,0,0.1-0.1,0.1c0,0-0.1,0.1-0.1,0.1h-4.1c-0.1,0-0.1,0-0.1-0.1c0,0-0.1-0.1-0.1-0.1v-5.5c0-0.1,0-0.1,0.1-0.1
	c0,0,0.1-0.1,0.1-0.1h4.1c0.1,0,0.1,0,0.1,0.1c0,0,0.1,0.1,0.1,0.1v1.1c0,0.1,0,0.1-0.1,0.1c0,0-0.1,0.1-0.1,0.1h-2.5
	c-0.1,0-0.1,0-0.1,0.1C55.6,29,55.5,29.1,55.5,29.1"/>
<path id="XMLID_42_" opacity="0.66" fill="#FFFFFF" d="M65.2,28.9h-1.1c-0.1,0-0.1,0-0.1,0.1c0,0-0.1,0.1-0.1,0.1v4
	c0,0.1,0,0.1-0.1,0.1c0,0-0.1,0.1-0.1,0.1h-1.2c-0.1,0-0.1,0-0.1-0.1c0,0-0.1-0.1-0.1-0.1v-4c0-0.1,0-0.1-0.1-0.1
	c0,0-0.1-0.1-0.1-0.1H61c-0.1,0-0.1,0-0.1-0.1c0,0-0.1-0.1-0.1-0.1v-1.1c0-0.1,0-0.1,0.1-0.1c0,0,0.1-0.1,0.1-0.1h4.2
	c0.1,0,0.1,0,0.1,0.1c0,0,0.1,0.1,0.1,0.1v1.1c0,0.1,0,0.1-0.1,0.1C65.3,28.9,65.3,28.9,65.2,28.9"/>
<path id="XMLID_103_" opacity="0.66" fill="#FFFFFF" d="M65.3,30.4c0-0.4,0.1-0.8,0.2-1.2c0.2-0.4,0.4-0.7,0.6-1
	c0.3-0.3,0.6-0.5,1-0.6c0.4-0.2,0.8-0.2,1.2-0.2c0.4,0,0.8,0.1,1.2,0.2c0.4,0.2,0.7,0.4,1,0.6c0.3,0.3,0.5,0.6,0.6,1
	c0.2,0.4,0.2,0.8,0.2,1.2c0,0.4-0.1,0.8-0.2,1.2c-0.2,0.4-0.4,0.7-0.6,1c-0.3,0.3-0.6,0.5-1,0.6s-0.8,0.2-1.2,0.2
	c-0.4,0-0.8-0.1-1.2-0.2c-0.4-0.2-0.7-0.4-1-0.6c-0.3-0.3-0.5-0.6-0.6-1C65.3,31.2,65.3,30.8,65.3,30.4 M66.8,30.4
	c0,0.2,0,0.4,0.1,0.6c0.1,0.2,0.2,0.3,0.3,0.5c0.1,0.1,0.3,0.2,0.5,0.3c0.2,0.1,0.4,0.1,0.6,0.1c0.2,0,0.4,0,0.6-0.1
	c0.2-0.1,0.3-0.2,0.5-0.3c0.1-0.1,0.2-0.3,0.3-0.5c0.1-0.2,0.1-0.4,0.1-0.6c0-0.2,0-0.4-0.1-0.6c-0.1-0.2-0.2-0.3-0.3-0.5
	c-0.1-0.1-0.3-0.2-0.5-0.3c-0.2-0.1-0.4-0.1-0.6-0.1c-0.2,0-0.4,0-0.6,0.1c-0.2,0.1-0.3,0.2-0.5,0.3c-0.1,0.1-0.2,0.3-0.3,0.5
	C66.9,30,66.8,30.2,66.8,30.4"/>
<path id="XMLID_100_" opacity="0.66" fill="#FFFFFF" d="M71.6,33.1v-5.4c0-0.1,0-0.1,0.1-0.1c0,0,0.1-0.1,0.1-0.1h2.2
	c0.8,0,1.5,0.2,2,0.7c0.3,0.3,0.5,0.6,0.7,0.9c0.1,0.4,0.2,0.8,0.2,1.2s-0.1,0.9-0.2,1.2c-0.1,0.4-0.4,0.7-0.7,0.9
	c-0.3,0.2-0.6,0.4-0.9,0.5c-0.3,0.1-0.7,0.2-1.1,0.2h-2.2c-0.1,0-0.1,0-0.1-0.1C71.6,33.2,71.6,33.2,71.6,33.1 M73.3,31.8h0.6
	c0.1,0,0.3,0,0.5-0.1c0.2,0,0.3-0.1,0.4-0.2c0.1-0.1,0.2-0.2,0.3-0.4c0.1-0.2,0.1-0.4,0.1-0.7c0-0.3,0-0.5-0.1-0.7
	c-0.1-0.2-0.2-0.3-0.3-0.4c-0.1-0.1-0.3-0.2-0.4-0.2c-0.2,0-0.3-0.1-0.5-0.1h-0.6c-0.1,0-0.1,0-0.1,0.1c0,0-0.1,0.1-0.1,0.1v2.5
	c0,0.1,0,0.1,0.1,0.1C73.2,31.8,73.3,31.8,73.3,31.8"/>
<path id="XMLID_97_" opacity="0.66" fill="#FFFFFF" d="M77.1,30.4c0-0.4,0.1-0.8,0.2-1.2c0.2-0.4,0.4-0.7,0.6-1
	c0.3-0.3,0.6-0.5,1-0.6c0.4-0.2,0.8-0.2,1.2-0.2c0.4,0,0.8,0.1,1.2,0.2c0.4,0.2,0.7,0.4,1,0.6c0.3,0.3,0.5,0.6,0.6,1
	c0.2,0.4,0.2,0.8,0.2,1.2c0,0.4-0.1,0.8-0.2,1.2c-0.2,0.4-0.4,0.7-0.6,1c-0.3,0.3-0.6,0.5-1,0.6c-0.4,0.2-0.8,0.2-1.2,0.2
	c-0.4,0-0.8-0.1-1.2-0.2c-0.4-0.2-0.7-0.4-1-0.6c-0.3-0.3-0.5-0.6-0.6-1C77.1,31.2,77.1,30.8,77.1,30.4 M78.6,30.4
	c0,0.2,0,0.4,0.1,0.6c0.1,0.2,0.2,0.3,0.3,0.5c0.1,0.1,0.3,0.2,0.5,0.3c0.2,0.1,0.4,0.1,0.6,0.1c0.2,0,0.4,0,0.6-0.1
	c0.2-0.1,0.3-0.2,0.5-0.3c0.1-0.1,0.2-0.3,0.3-0.5c0.1-0.2,0.1-0.4,0.1-0.6c0-0.2,0-0.4-0.1-0.6c-0.1-0.2-0.2-0.3-0.3-0.5
	c-0.1-0.1-0.3-0.2-0.5-0.3c-0.2-0.1-0.4-0.1-0.6-0.1c-0.2,0-0.4,0-0.6,0.1c-0.2,0.1-0.3,0.2-0.5,0.3c-0.1,0.1-0.2,0.3-0.3,0.5
	C78.7,30,78.6,30.2,78.6,30.4"/>
<path id="XMLID_35_" opacity="0.66" fill="#FFFFFF" d="M84.1,31.3c0.3,0.2,0.6,0.3,0.9,0.4c0.3,0.1,0.5,0.2,0.8,0.2
	c0.2,0,0.4,0,0.5-0.1c0.1-0.1,0.2-0.2,0.2-0.3c0-0.1,0-0.1-0.1-0.2c-0.1,0-0.1-0.1-0.2-0.1c-0.1,0-0.2,0-0.3-0.1
	c-0.1,0-0.2,0-0.4-0.1c-0.1,0-0.3,0-0.4-0.1c-0.2,0-0.3-0.1-0.5-0.1c-0.2-0.1-0.3-0.1-0.5-0.2c-0.2-0.1-0.3-0.2-0.4-0.3
	c-0.1-0.1-0.2-0.3-0.3-0.5c-0.1-0.2-0.1-0.4-0.1-0.6c0-0.4,0.1-0.7,0.2-0.9c0.1-0.2,0.3-0.4,0.5-0.6c0.2-0.1,0.5-0.2,0.7-0.3
	c0.3-0.1,0.5-0.1,0.8-0.1c0.4,0,0.8,0.1,1.2,0.2c0.4,0.1,0.7,0.3,1,0.6c0,0,0.1,0.1,0.1,0.1c0,0.1,0,0.1,0,0.1l-0.6,0.9
	c0,0-0.1,0.1-0.1,0.1c-0.1,0-0.1,0-0.1,0c-0.3-0.2-0.5-0.3-0.8-0.4c-0.2-0.1-0.4-0.1-0.6-0.1c-0.1,0-0.1,0-0.2,0c-0.1,0-0.1,0-0.2,0
	c-0.1,0-0.1,0-0.2,0.1c0,0-0.1,0.1-0.1,0.2c0,0.1,0.1,0.1,0.2,0.2c0.1,0.1,0.2,0.1,0.4,0.2c0.1,0,0.3,0.1,0.4,0.1c0.1,0,0.2,0,0.3,0
	c0.2,0,0.4,0.1,0.6,0.2c0.2,0.1,0.4,0.2,0.6,0.3c0.2,0.1,0.4,0.3,0.5,0.5C88,31,88,31.2,88,31.6c0,0.3-0.1,0.6-0.2,0.8
	c-0.1,0.2-0.3,0.4-0.5,0.6c-0.2,0.1-0.4,0.3-0.7,0.3c-0.3,0.1-0.6,0.1-0.9,0.1c-0.3,0-0.5,0-0.8-0.1c-0.2,0-0.5-0.1-0.7-0.2
	c-0.2-0.1-0.4-0.2-0.6-0.3c-0.2-0.1-0.3-0.2-0.5-0.3c0,0-0.1-0.1-0.1-0.1c0-0.1,0-0.1,0-0.1l0.6-0.9c0,0,0.1-0.1,0.1-0.1
	C84,31.3,84,31.3,84.1,31.3"/>
<path id="XMLID_34_" opacity="0.66" fill="#FFFFFF" d="M34.9,7c0.7,0,1.2,0.4,1.3,1.1l0.1,0.2h1.3L37.5,8c-0.2-1.3-1.2-2.2-2.6-2.2
	c-0.7,0-1.4,0.3-1.9,0.8c-0.7,0.7-0.7,1.4-0.7,2.9c0,1.4,0,2.2,0.7,2.9c0.5,0.5,1.2,0.8,1.9,0.8c0.8,0,1.5-0.3,2-0.9
	c0.5-0.5,0.6-1.1,0.6-1.9V9h-2.9v1.2h1.6v0.2c0,0.5-0.1,0.7-0.3,1c-0.2,0.3-0.6,0.5-1,0.5c-0.4,0-0.7-0.1-0.9-0.4
	c-0.3-0.3-0.4-0.7-0.4-2.1c0-1.4,0.1-1.7,0.4-2C34.2,7.1,34.6,7,34.9,7"/>
<path id="XMLID_92_" opacity="0.66" fill="#FFFFFF" d="M40.7,5.8c-0.7,0-1.4,0.3-1.9,0.8c-0.7,0.7-0.7,1.4-0.7,2.9
	c0,1.4,0,2.2,0.7,2.9c0.5,0.5,1.2,0.8,1.9,0.8c0.7,0,1.4-0.3,1.9-0.8c0.7-0.7,0.7-1.4,0.7-2.9c0-1.4,0-2.2-0.7-2.9
	C42.1,6.1,41.5,5.8,40.7,5.8 M42,9.4c0,1.4-0.1,1.7-0.4,2c-0.5,0.5-1.4,0.5-1.9,0c-0.3-0.3-0.4-0.7-0.4-2c0-1.4,0.1-1.7,0.4-2
	C40,7.1,40.4,7,40.7,7s0.7,0.1,0.9,0.4C42,7.7,42,8,42,9.4"/>
<path id="XMLID_88_" opacity="0.66" fill="#FFFFFF" d="M48.3,9.3c0.4-0.3,0.7-0.9,0.7-1.4c0-1.2-0.9-2.1-2.2-2.1h-2.8V13h2.9
	c1.4,0,2.3-0.8,2.3-2.1C49,10.2,48.8,9.7,48.3,9.3 M46.7,8.8h-1.4V7.1h1.4c0.5,0,1,0.1,1,0.8C47.7,8.6,47,8.8,46.7,8.8 M46.7,10
	c0.7,0,1,0.3,1,0.9c0,0.6-0.4,0.9-1,0.9h-1.5V10H46.7z"/>
<rect id="XMLID_28_" x="49.8" y="5.8" opacity="0.66" fill="#FFFFFF" width="1.3" height="7.2"/>
<polygon id="XMLID_27_" opacity="0.66" fill="#FFFFFF" points="51.9,13 56.6,13 56.6,11.8 53.2,11.8 53.2,10 56.1,10 56.1,8.8 
	53.2,8.8 53.2,7.1 56.6,7.1 56.6,5.8 51.9,5.8 "/>
<path id="XMLID_83_" opacity="0.66" fill="#FFFFFF" d="M62.2,8c0-1.3-0.9-2.1-2.2-2.1h-2.8V13h1.3v-2.9h1.1L61,13h1.5l-1.6-3.1
	C61.7,9.6,62.2,8.9,62.2,8 M60.9,8c0,0.8-0.6,0.9-1,0.9h-1.5V7.1h1.5C60.2,7.1,60.9,7.2,60.9,8"/>
<polygon id="XMLID_24_" opacity="0.66" fill="#FFFFFF" points="67.1,10.4 64.1,5.8 63,5.8 63,13 64.2,13 64.2,8.4 67.3,13 68.4,13 
	68.4,5.8 67.1,5.8 "/>
<path id="XMLID_79_" opacity="0.66" fill="#FFFFFF" d="M71.8,5.8c-0.7,0-1.4,0.3-1.9,0.8c-0.7,0.7-0.7,1.4-0.7,2.9
	c0,1.4,0,2.2,0.7,2.9c0.5,0.5,1.2,0.8,1.9,0.8c0.7,0,1.4-0.3,1.9-0.8c0.7-0.7,0.7-1.4,0.7-2.9c0-1.4,0-2.2-0.7-2.9
	C73.2,6.1,72.5,5.8,71.8,5.8 M73.1,9.4c0,1.4-0.1,1.7-0.4,2c-0.5,0.5-1.4,0.5-1.9,0c-0.3-0.3-0.4-0.7-0.4-2c0-1.4,0.1-1.7,0.4-2
	C71.1,7.1,71.5,7,71.8,7c0.4,0,0.7,0.1,0.9,0.4C73.1,7.7,73.1,8,73.1,9.4"/>
<path id="XMLID_76_" opacity="0.66" fill="#FFFFFF" d="M81.7,6.5c-0.5-0.5-1.1-0.7-1.9-0.7h-2.6V13h2.6c0.8,0,1.4-0.2,1.9-0.7
	c0.7-0.7,0.7-1.9,0.7-2.8V9.4V9.2C82.5,8.3,82.5,7.3,81.7,6.5 M81.2,9.3v0.2c0,0.7,0,1.6-0.4,2c-0.3,0.3-0.6,0.4-1.1,0.4h-1.1V7.1
	h1.1c0.5,0,0.8,0.1,1.1,0.4C81.2,7.8,81.2,8.6,81.2,9.3"/>
<polygon id="XMLID_19_" opacity="0.66" fill="#FFFFFF" points="83.3,13 88,13 88,11.8 84.6,11.8 84.6,10 87.5,10 87.5,8.8 84.6,8.8 
	84.6,7.1 88,7.1 88,5.8 83.3,5.8 "/>
<path id="XMLID_18_" opacity="0.66" fill="#FFFFFF" d="M35.7,24.4c-1,0-1.8-0.3-2.5-1c-0.4-0.4-0.7-0.9-0.8-1.4
	c-0.1-0.5-0.2-1.3-0.2-2.3c0-1,0.1-1.8,0.2-2.3c0.1-0.5,0.4-1,0.8-1.4c0.7-0.7,1.5-1,2.5-1c1.8,0,3.1,1,3.4,2.9h-1.8
	c-0.2-0.8-0.7-1.3-1.6-1.3c-0.5,0-0.9,0.2-1.2,0.5c-0.4,0.4-0.5,0.8-0.5,2.6c0,1.8,0.1,2.2,0.5,2.6c0.3,0.3,0.7,0.5,1.2,0.5
	c0.9,0,1.4-0.5,1.6-1.3h1.8C38.8,23.4,37.5,24.4,35.7,24.4"/>
<path id="XMLID_71_" opacity="0.66" fill="#FFFFFF" d="M45.6,23.4c-0.7,0.7-1.4,1-2.5,1c-1.1,0-1.9-0.4-2.5-1
	c-0.9-0.9-0.9-2.1-0.9-3.7c0-1.6,0-2.8,0.9-3.7c0.7-0.7,1.5-1,2.5-1c1.1,0,1.9,0.4,2.5,1c0.9,0.9,0.9,2.1,0.9,3.7
	C46.5,21.3,46.5,22.5,45.6,23.4 M44.3,17.1c-0.3-0.3-0.7-0.5-1.2-0.5c-0.5,0-0.9,0.2-1.2,0.5c-0.4,0.4-0.4,0.8-0.4,2.6
	c0,1.8,0.1,2.2,0.4,2.6c0.3,0.3,0.7,0.5,1.2,0.5c0.5,0,0.9-0.2,1.2-0.5c0.4-0.4,0.5-0.8,0.5-2.6C44.7,17.9,44.6,17.5,44.3,17.1"/>
<path id="XMLID_68_" opacity="0.66" fill="#FFFFFF" d="M53,24.3l-1.8-3.7h-1.3v3.7h-1.8v-9.3h3.6c1.9,0,3,1.3,3,2.8
	c0,1.3-0.8,2.1-1.7,2.4l2.1,4H53z M51.6,16.7h-1.7v2.5h1.7c0.8,0,1.3-0.5,1.3-1.2C52.9,17.2,52.4,16.7,51.6,16.7"/>
<path id="XMLID_65_" opacity="0.66" fill="#FFFFFF" d="M62,23.5c-0.6,0.6-1.5,0.9-2.5,0.9h-3.4v-9.3h3.4c1,0,1.8,0.3,2.5,0.9
	c1,1,0.9,2.3,0.9,3.7C63,21.1,63.1,22.4,62,23.5 M60.8,17.3c-0.3-0.4-0.7-0.6-1.4-0.6h-1.4v6h1.4c0.6,0,1-0.2,1.4-0.6
	c0.3-0.4,0.4-1.1,0.4-2.5C61.2,18.3,61.1,17.7,60.8,17.3"/>
<path id="XMLID_62_" opacity="0.66" fill="#FFFFFF" d="M70.1,23.4c-0.7,0.7-1.4,1-2.5,1c-1.1,0-1.9-0.4-2.5-1
	c-0.9-0.9-0.9-2.1-0.9-3.7c0-1.6,0-2.8,0.9-3.7c0.7-0.7,1.5-1,2.5-1c1.1,0,1.9,0.4,2.5,1c0.9,0.9,0.9,2.1,0.9,3.7
	C71.1,21.3,71.1,22.5,70.1,23.4 M68.8,17.1c-0.3-0.3-0.7-0.5-1.2-0.5c-0.5,0-0.9,0.2-1.2,0.5c-0.4,0.4-0.4,0.8-0.4,2.6
	c0,1.8,0.1,2.2,0.4,2.6c0.3,0.3,0.7,0.5,1.2,0.5c0.5,0,0.9-0.2,1.2-0.5c0.4-0.4,0.5-0.8,0.5-2.6C69.2,17.9,69.1,17.5,68.8,17.1"/>
<path id="XMLID_58_" opacity="0.66" fill="#FFFFFF" d="M76.5,24.3h-3.9v-9.3h3.7c1.8,0,2.9,1,2.9,2.6c0,1-0.7,1.7-1.1,1.9
	c0.6,0.3,1.3,0.8,1.3,2.1C79.3,23.4,78.1,24.3,76.5,24.3 M76.2,16.7h-1.8v2.1h1.8c0.8,0,1.2-0.4,1.2-1.1
	C77.4,17.1,76.9,16.7,76.2,16.7 M76.3,20.4h-1.9v2.3h1.9c0.8,0,1.2-0.5,1.2-1.1S77.1,20.4,76.3,20.4"/>
<path id="XMLID_55_" opacity="0.66" fill="#FFFFFF" d="M86.1,24.3l-0.5-1.6h-3.3l-0.6,1.6h-1.9l3.4-9.3h1.4l3.4,9.3H86.1z
	 M83.9,17.8l-1.2,3.4h2.3L83.9,17.8z"/>
<polygon id="XMLID_4_" opacity="0.66" fill="#FFFFFF" points="43.9,14.5 41.9,14.5 42.3,13.6 44.3,13.6 "/>
<rect id="XMLID_3_" x="26.6" y="1.7" opacity="0.66" fill="#FFFFFF" width="1.2" height="11.4"/>
<rect id="XMLID_2_" x="26.6" y="13.2" opacity="0.66" fill="#FFFFFF" width="1.2" height="11.4"/>
<rect id="XMLID_1_" x="26.6" y="24.6" opacity="0.66" fill="#FFFFFF" width="1.2" height="11.4"/>
</svg>
