<svg xmlns="http://www.w3.org/2000/svg" width="20.021" height="22" viewBox="0 0 20.021 22">
  <path id="Trazado_620" data-name="Trazado 620" d="M19.71,19.29,18,17.56v-.31a2.75,2.75,0,0,0-2.75-2.75h-.34l-1.44-1.44a.671.671,0,0,1,.28-.06H17a1,1,0,0,0,0-2H15.5V10a1,1,0,0,0-2,0v1a2.74,2.74,0,0,0-1.47.59l-1.32-1.33a1,1,0,0,0-1.42,1.42L11,13.44v.31a2.75,2.75,0,0,0,2.75,2.75h.34l1.44,1.44a.671.671,0,0,1-.28.06H12a1,1,0,0,0,0,2h1.5v1a1,1,0,0,0,2,0V20a2.74,2.74,0,0,0,1.5-.62l1.32,1.33a.994.994,0,1,0,1.39-1.42ZM8,18H3a1,1,0,0,1-1-1V3A1,1,0,0,1,3,2H9V6a1,1,0,0,0,1,1h5a1.005,1.005,0,0,0,.71-1.71l-5-5A1.071,1.071,0,0,0,10.43.1h-.09a1.31,1.31,0,0,0-.28-.1H3A3,3,0,0,0,0,3V17a3,3,0,0,0,3,3H8a1,1,0,0,0,0-2ZM11,3.41,12.59,5H11Z"/>
</svg>
