<?xml version="1.0" encoding="utf-8"?>
<!-- Generator: Adobe Illustrator 19.0.0, SVG Export Plug-In . SVG Version: 6.00 Build 0)  -->
<svg version="1.1" id="Capa_1" xmlns="http://www.w3.org/2000/svg" xmlns:xlink="http://www.w3.org/1999/xlink" x="0px" y="0px"
	 viewBox="0 0 170.7 44" style="enable-background:new 0 0 170.7 44;" xml:space="preserve">
<style type="text/css">
	.st0{clip-path:url(#XMLID_167_);fill:url(#XMLID_168_);}
	.st1{clip-path:url(#XMLID_169_);fill:url(#XMLID_170_);}
	.st2{fill:#FFFFFF;}
	.st3{fill:none;}
</style>
<g id="XMLID_2_">
	<g id="XMLID_49_">
		<defs>
			<path id="XMLID_50_" d="M23.5,6.5c-5.1,2-9,6.2-10.6,11.4l-3.8,0.1L15.8,29l6.1-11.2l-3.4,0.1c1.4-3,3.8-5.3,6.9-6.5
				c5.3-2.1,11.4-0.4,14.9,4.1l4-3.1c-3.5-4.5-8.8-7-14.3-7C27.9,5.3,25.7,5.7,23.5,6.5"/>
		</defs>
		<clipPath id="XMLID_167_">
			<use xlink:href="#XMLID_50_"  style="overflow:visible;"/>
		</clipPath>
		
			<linearGradient id="XMLID_168_" gradientUnits="userSpaceOnUse" x1="-838.5568" y1="536.5672" x2="-837.8559" y2="536.5672" gradientTransform="matrix(10.9019 20.5034 20.5034 -10.9019 -1838.0111 23050.3145)">
			<stop  offset="0" style="stop-color:#E9BC2F"/>
			<stop  offset="1" style="stop-color:#D1762B"/>
		</linearGradient>
		<polygon id="XMLID_51_" class="st0" points="36.6,-9.3 54.2,23.7 16.9,43.6 -0.7,10.5 		"/>
	</g>
	<g id="XMLID_46_">
		<defs>
			<path id="XMLID_47_" d="M37.4,27.2l3.4-0.1c-1.4,3-3.8,5.3-6.9,6.5c-5.3,2.1-11.4,0.4-14.9-4.1l-4,3.1c4.9,6.3,13.5,8.7,20.9,5.7
				c5.1-2,9-6.2,10.6-11.4l3.8-0.1L43.4,16L37.4,27.2z"/>
		</defs>
		<clipPath id="XMLID_169_">
			<use xlink:href="#XMLID_47_"  style="overflow:visible;"/>
		</clipPath>
		
			<linearGradient id="XMLID_170_" gradientUnits="userSpaceOnUse" x1="-838.8845" y1="536.6624" x2="-838.1836" y2="536.6624" gradientTransform="matrix(10.902 20.5036 20.5036 -10.902 -1828.401 23074.2207)">
			<stop  offset="0" style="stop-color:#D1762B"/>
			<stop  offset="1" style="stop-color:#E9BB2F"/>
		</linearGradient>
		<polygon id="XMLID_48_" class="st1" points="42.3,1.4 60.6,35.8 22.6,56 4.3,21.6 		"/>
	</g>
</g>
<path id="XMLID_35_" class="st2" d="M54,38.8V19.2h8.5c2.1,0,3.7,0.2,4.7,0.5c1,0.4,1.8,1,2.3,1.9c0.6,0.9,0.9,1.9,0.9,3.1
	c0,1.5-0.4,2.7-1.3,3.7c-0.9,1-2.2,1.6-4,1.8c0.9,0.5,1.6,1,2.2,1.6c0.6,0.6,1.3,1.7,2.3,3.2l2.5,3.8h-4.9l-2.9-4.3
	c-1-1.5-1.8-2.5-2.1-2.9c-0.4-0.4-0.8-0.7-1.2-0.8c-0.4-0.1-1.1-0.2-2.1-0.2h-0.8v8.2H54z M58.1,27.5h3c1.9,0,3.2-0.1,3.6-0.2
	c0.5-0.2,0.9-0.4,1.1-0.8c0.3-0.4,0.4-0.9,0.4-1.5c0-0.7-0.2-1.2-0.5-1.6c-0.4-0.4-0.9-0.7-1.5-0.8c-0.3,0-1.3-0.1-3-0.1h-3.2V27.5z
	 M74.3,38.8V19.2h14.9v3.3H78.3v4.4h10v3.3h-10v5.3h11.2v3.3H74.3z M93,38.8V19.2h3.9l8.3,13.2V19.2h3.8v19.7h-4.1l-8.1-12.9v12.9
	H93z M117.8,38.8V22.5h-5.9v-3.3h15.9v3.3h-5.9v16.3H117.8z M146.4,38.8l-8-19.7h-4.3l-7.8,19.7h4.3l1.7-4.5h8.1l1.7,4.5H146.4z
	 M139,31h-5.5l2.7-7.3L139,31z M147.5,32.5l4-0.4c0.2,1.3,0.7,2.2,1.4,2.9c0.7,0.6,1.7,0.9,2.9,0.9c1.3,0,2.3-0.3,2.9-0.8
	c0.7-0.5,1-1.2,1-1.9c0-0.5-0.1-0.9-0.4-1.2c-0.3-0.3-0.8-0.6-1.5-0.8c-0.5-0.2-1.5-0.4-3.2-0.9c-2.2-0.5-3.7-1.2-4.6-2
	c-1.2-1.1-1.8-2.4-1.8-4c0-1,0.3-1.9,0.9-2.8c0.6-0.9,1.4-1.5,2.5-2c1.1-0.5,2.4-0.7,3.9-0.7c2.5,0,4.4,0.5,5.7,1.6
	c1.3,1.1,1.9,2.5,2,4.4l-4.1,0.1c-0.2-1-0.5-1.7-1.1-2.2c-0.6-0.4-1.4-0.7-2.5-0.7c-1.2,0-2.1,0.2-2.7,0.7c-0.4,0.3-0.6,0.7-0.6,1.2
	c0,0.5,0.2,0.9,0.6,1.2c0.5,0.4,1.7,0.9,3.7,1.3c2,0.5,3.4,0.9,4.4,1.4c0.9,0.5,1.7,1.2,2.2,2c0.5,0.8,0.8,1.9,0.8,3.1
	c0,1.1-0.3,2.2-1,3.2c-0.6,1-1.5,1.7-2.7,2.2c-1.2,0.5-2.6,0.7-4.4,0.7c-2.5,0-4.5-0.6-5.9-1.7C148.6,36.3,147.8,34.6,147.5,32.5"/>
<path id="XMLID_32_" class="st2" d="M54,15.6V9h2.2c0.5,0,0.9,0,1.1,0.1c0.4,0.1,0.7,0.2,0.9,0.5c0.3,0.3,0.6,0.7,0.8,1.1
	c0.2,0.5,0.3,1,0.3,1.6c0,0.5-0.1,0.9-0.2,1.3c-0.1,0.4-0.3,0.7-0.4,1c-0.2,0.3-0.4,0.4-0.6,0.6c-0.2,0.1-0.5,0.3-0.8,0.3
	c-0.3,0.1-0.6,0.1-1,0.1H54z M54.8,14.8h1.4c0.4,0,0.8,0,1-0.1c0.2-0.1,0.4-0.2,0.6-0.3c0.2-0.2,0.4-0.5,0.5-0.8
	c0.1-0.3,0.2-0.8,0.2-1.3c0-0.7-0.1-1.2-0.3-1.6c-0.2-0.4-0.5-0.6-0.8-0.7c-0.2-0.1-0.6-0.1-1.1-0.1h-1.3V14.8z"/>
<rect id="XMLID_31_" x="60.5" y="9" class="st2" width="0.8" height="6.5"/>
<path id="XMLID_28_" class="st2" d="M62.9,15.6V9h2.8c0.6,0,1,0.1,1.3,0.2c0.3,0.1,0.5,0.3,0.7,0.6c0.2,0.3,0.3,0.6,0.3,1
	c0,0.5-0.1,0.9-0.4,1.2c-0.3,0.3-0.7,0.5-1.4,0.6c0.2,0.1,0.4,0.2,0.5,0.3c0.2,0.2,0.5,0.5,0.7,0.9l1.1,1.8h-1.1l-0.8-1.4
	c-0.2-0.4-0.5-0.7-0.6-0.9c-0.2-0.2-0.3-0.4-0.4-0.4c-0.1-0.1-0.3-0.1-0.4-0.2c-0.1,0-0.3,0-0.5,0h-1v2.9H62.9z M63.7,11.9h1.8
	c0.4,0,0.7,0,0.9-0.1c0.2-0.1,0.4-0.2,0.5-0.4c0.1-0.2,0.2-0.4,0.2-0.6c0-0.3-0.1-0.6-0.3-0.8c-0.2-0.2-0.6-0.3-1-0.3h-2V11.9z"/>
<polygon id="XMLID_27_" class="st2" points="69.3,15.6 69.3,9 74,9 74,9.8 70.2,9.8 70.2,11.8 73.7,11.8 73.7,12.6 70.2,12.6 
	70.2,14.8 74.1,14.8 74.1,15.6 "/>
<path id="XMLID_26_" class="st2" d="M79.6,13.3l0.8,0.2c-0.2,0.7-0.5,1.3-1,1.6c-0.5,0.4-1,0.6-1.7,0.6c-0.7,0-1.3-0.1-1.7-0.4
	s-0.8-0.7-1-1.2c-0.2-0.5-0.3-1.1-0.3-1.8c0-0.7,0.1-1.3,0.4-1.8c0.3-0.5,0.6-0.9,1.1-1.2c0.5-0.3,1-0.4,1.6-0.4
	c0.6,0,1.2,0.2,1.6,0.5c0.4,0.3,0.7,0.8,0.9,1.4L79.5,11c-0.1-0.5-0.4-0.8-0.6-1c-0.3-0.2-0.6-0.3-1.1-0.3c-0.5,0-0.9,0.1-1.2,0.4
	c-0.3,0.2-0.6,0.6-0.7,1c-0.1,0.4-0.2,0.8-0.2,1.3c0,0.6,0.1,1,0.2,1.5c0.2,0.4,0.4,0.7,0.7,0.9c0.3,0.2,0.7,0.3,1.1,0.3
	c0.5,0,0.9-0.1,1.2-0.4C79.3,14.2,79.5,13.8,79.6,13.3"/>
<path id="XMLID_25_" class="st2" d="M86,13.3l0.8,0.2c-0.2,0.7-0.5,1.3-1,1.6c-0.5,0.4-1,0.6-1.7,0.6c-0.7,0-1.3-0.1-1.7-0.4
	c-0.4-0.3-0.8-0.7-1-1.2c-0.2-0.5-0.3-1.1-0.3-1.8c0-0.7,0.1-1.3,0.4-1.8c0.3-0.5,0.6-0.9,1.1-1.2c0.5-0.3,1-0.4,1.6-0.4
	c0.6,0,1.2,0.2,1.6,0.5c0.4,0.3,0.7,0.8,0.9,1.4L85.9,11c-0.1-0.5-0.4-0.8-0.6-1c-0.3-0.2-0.6-0.3-1.1-0.3c-0.5,0-0.9,0.1-1.2,0.4
	c-0.3,0.2-0.6,0.6-0.7,1c-0.1,0.4-0.2,0.8-0.2,1.3c0,0.6,0.1,1,0.2,1.5c0.2,0.4,0.4,0.7,0.7,0.9c0.3,0.2,0.7,0.3,1.1,0.3
	c0.5,0,0.9-0.1,1.2-0.4C85.7,14.2,85.9,13.8,86,13.3"/>
<rect id="XMLID_24_" x="87.9" y="9" class="st2" width="0.8" height="6.5"/>
<path id="XMLID_20_" class="st2" d="M90,12.4c0-1.1,0.3-1.9,0.9-2.5c0.6-0.6,1.3-0.9,2.2-0.9c0.6,0,1.1,0.1,1.6,0.4
	c0.5,0.3,0.8,0.7,1.1,1.2c0.2,0.5,0.4,1.1,0.4,1.8c0,0.7-0.1,1.3-0.4,1.8c-0.3,0.5-0.6,0.9-1.1,1.2c-0.5,0.3-1,0.4-1.6,0.4
	c-0.6,0-1.1-0.1-1.6-0.4c-0.5-0.3-0.8-0.7-1.1-1.2C90.1,13.5,90,13,90,12.4 M90.9,12.4c0,0.8,0.2,1.4,0.6,1.9
	c0.4,0.5,0.9,0.7,1.6,0.7c0.6,0,1.2-0.2,1.6-0.7c0.4-0.5,0.6-1.1,0.6-1.9c0-0.5-0.1-1-0.3-1.4c-0.2-0.4-0.4-0.7-0.8-0.9
	c-0.3-0.2-0.7-0.3-1.1-0.3c-0.6,0-1.1,0.2-1.5,0.6C91.1,10.7,90.9,11.4,90.9,12.4 M92.5,8.6l0.6-1.2h1l-1,1.2H92.5z"/>
<polygon id="XMLID_19_" class="st2" points="97.2,15.6 97.2,9 98.1,9 101.5,14.2 101.5,9 102.3,9 102.3,15.6 101.4,15.6 98,10.4 
	98,15.6 "/>
<path id="XMLID_18_" class="st2" d="M109.2,13v-0.8l2.7,0v2.4c-0.4,0.3-0.8,0.6-1.3,0.8c-0.4,0.2-0.9,0.3-1.4,0.3
	c-0.6,0-1.2-0.1-1.7-0.4c-0.5-0.3-0.9-0.7-1.2-1.2c-0.3-0.5-0.4-1.1-0.4-1.7c0-0.6,0.1-1.2,0.4-1.8c0.3-0.6,0.6-1,1.1-1.2
	c0.5-0.3,1.1-0.4,1.7-0.4c0.5,0,0.9,0.1,1.3,0.2c0.4,0.2,0.7,0.4,0.9,0.6c0.2,0.3,0.4,0.6,0.5,1.1l-0.8,0.2
	c-0.1-0.3-0.2-0.6-0.4-0.8c-0.1-0.2-0.3-0.3-0.6-0.5c-0.3-0.1-0.6-0.2-0.9-0.2c-0.4,0-0.7,0.1-1,0.2c-0.3,0.1-0.5,0.3-0.7,0.5
	c-0.2,0.2-0.3,0.4-0.4,0.6c-0.2,0.4-0.2,0.8-0.2,1.3c0,0.6,0.1,1.1,0.3,1.5c0.2,0.4,0.5,0.7,0.9,0.9c0.4,0.2,0.8,0.3,1.2,0.3
	c0.4,0,0.7-0.1,1.1-0.2c0.3-0.1,0.6-0.3,0.8-0.5V13H109.2z"/>
<polygon id="XMLID_17_" class="st2" points="113.2,15.6 113.2,9 117.8,9 117.8,9.8 114,9.8 114,11.8 117.6,11.8 117.6,12.6 
	114,12.6 114,14.8 118,14.8 118,15.6 "/>
<polygon id="XMLID_16_" class="st2" points="119,15.6 119,9 119.9,9 123.2,14.2 123.2,9 124.1,9 124.1,15.6 123.2,15.6 119.8,10.4 
	119.8,15.6 "/>
<polygon id="XMLID_15_" class="st2" points="125.5,15.6 125.5,9 130.1,9 130.1,9.8 126.4,9.8 126.4,11.8 129.9,11.8 129.9,12.6 
	126.4,12.6 126.4,14.8 130.3,14.8 130.3,15.6 "/>
<path id="XMLID_12_" class="st2" d="M131.3,15.6V9h2.8c0.6,0,1,0.1,1.3,0.2c0.3,0.1,0.5,0.3,0.7,0.6c0.2,0.3,0.3,0.6,0.3,1
	c0,0.5-0.1,0.9-0.4,1.2c-0.3,0.3-0.7,0.5-1.4,0.6c0.2,0.1,0.4,0.2,0.5,0.3c0.2,0.2,0.5,0.5,0.7,0.9l1.1,1.8h-1.1l-0.8-1.4
	c-0.2-0.4-0.5-0.7-0.6-0.9c-0.2-0.2-0.3-0.4-0.4-0.4c-0.1-0.1-0.3-0.1-0.4-0.2c-0.1,0-0.3,0-0.5,0h-1v2.9H131.3z M132.2,11.9h1.8
	c0.4,0,0.7,0,0.9-0.1c0.2-0.1,0.4-0.2,0.5-0.4c0.1-0.2,0.2-0.4,0.2-0.6c0-0.3-0.1-0.6-0.3-0.8c-0.2-0.2-0.6-0.3-1-0.3h-2V11.9z"/>
<path id="XMLID_9_" class="st2" d="M137.4,15.6l2.5-6.5h0.9l2.6,6.5h-1l-0.7-2H139l-0.7,2H137.4z M139.3,12.9h2.2l-0.7-1.8
	c-0.2-0.5-0.4-1-0.5-1.4c-0.1,0.4-0.2,0.8-0.3,1.2L139.3,12.9z"/>
<polygon id="XMLID_8_" class="st2" points="144.2,15.6 144.2,9 145,9 145,14.8 148.2,14.8 148.2,15.6 "/>
<path id="XMLID_5_" class="st2" d="M151.7,15.6V9h2.2c0.5,0,0.9,0,1.1,0.1c0.4,0.1,0.7,0.2,0.9,0.5c0.3,0.3,0.6,0.7,0.8,1.1
	c0.2,0.5,0.3,1,0.3,1.6c0,0.5-0.1,0.9-0.2,1.3c-0.1,0.4-0.3,0.7-0.4,1c-0.2,0.3-0.4,0.4-0.6,0.6c-0.2,0.1-0.5,0.3-0.8,0.3
	c-0.3,0.1-0.6,0.1-1,0.1H151.7z M152.5,14.8h1.4c0.4,0,0.8,0,1-0.1c0.2-0.1,0.4-0.2,0.6-0.3c0.2-0.2,0.4-0.5,0.5-0.8
	c0.1-0.3,0.2-0.8,0.2-1.3c0-0.7-0.1-1.2-0.3-1.6c-0.2-0.4-0.5-0.6-0.8-0.7c-0.2-0.1-0.6-0.1-1.1-0.1h-1.3V14.8z"/>
<polygon id="XMLID_4_" class="st2" points="158.1,15.6 158.1,9 162.8,9 162.8,9.8 159,9.8 159,11.8 162.5,11.8 162.5,12.6 159,12.6 
	159,14.8 162.9,14.8 162.9,15.6 "/>
<rect id="XMLID_3_" x="-467.7" y="-41.2" class="st3" width="1916.3" height="892.5"/>
</svg>
