<svg xmlns="http://www.w3.org/2000/svg" width="22" height="20" viewBox="0 0 22 20">
  <path id="Trazado_616" data-name="Trazado 616" d="M19,0H9A3,3,0,0,0,6,3v7a3,3,0,0,0,3,3H19a3,3,0,0,0,3-3V3a3,3,0,0,0-3-3Zm1,10a1,1,0,0,1-1,1H9a1,1,0,0,1-1-1V3A1,1,0,0,1,9,2H19a1,1,0,0,1,1,1ZM16.5,6a1.49,1.49,0,0,0-1,.39,1.5,1.5,0,1,0,0,2.22A1.5,1.5,0,1,0,16.5,6ZM15,15a1,1,0,0,0-1,1v1a1,1,0,0,1-1,1H3a1,1,0,0,1-1-1V13H3a1,1,0,0,0,0-2H2V10A1,1,0,0,1,3,9,1,1,0,1,0,3,7a3,3,0,0,0-3,3v7a3,3,0,0,0,3,3H13a3,3,0,0,0,3-3V16a1,1,0,0,0-1-1ZM5,16H6a1,1,0,0,0,0-2H5a1,1,0,0,0,0,2Z"/>
</svg>
